<svg width="162" height="122" viewBox="0 0 162 122" fill="none" xmlns="http://www.w3.org/2000/svg">
<path d="M7.14719 113.57H0.153031C0.11804 113.57 0.0842761 113.547 0.0582251 113.506C0.0321741 113.466 0.0156724 113.409 0.0118896 113.349C0.00473023 113.228 0.00115061 113.057 0.00115061 112.836C-0.000383536 75.262 -0.000383536 37.6879 0.00115061 0.113804C0.00115061 0.0656076 0.0149578 0.0415095 0.0425724 0.0415095C51.6952 0.0415095 103.346 0.0419555 154.996 0.0428481C155.247 0.0428481 155.51 0.0366005 155.784 0.0241053C156.051 0.01161 156.314 0.00357734 156.573 7.27596e-06C156.666 -0.000885241 156.713 0.0803338 156.713 0.243664V10.0823C156.713 10.1533 156.729 10.2214 156.758 10.2717C156.787 10.3219 156.826 10.3501 156.867 10.3501H161.546C161.586 10.3501 161.625 10.3783 161.654 10.4285C161.683 10.4787 161.699 10.5468 161.699 10.6178V120.799C161.699 120.87 161.683 120.938 161.654 120.988C161.625 121.039 161.586 121.067 161.546 121.067H7.34663C7.31571 121.067 7.28592 121.047 7.26308 121.011C7.24024 120.974 7.226 120.925 7.22313 120.871C7.21137 120.664 7.20728 120.44 7.21086 120.199C7.21495 119.887 7.2418 117.968 7.2914 114.443C7.29294 114.312 7.28808 114.092 7.27683 113.781C7.2745 113.724 7.25982 113.67 7.23575 113.631C7.21169 113.591 7.18004 113.57 7.14719 113.57ZM154.489 3.853C154.489 3.83632 154.485 3.82031 154.478 3.80851C154.471 3.79671 154.462 3.79008 154.453 3.79008H2.26094C2.25138 3.79008 2.24221 3.79671 2.23545 3.80851C2.22869 3.82031 2.22489 3.83632 2.22489 3.853V109.624C2.22489 109.641 2.22869 109.657 2.23545 109.669C2.24221 109.681 2.25138 109.687 2.26094 109.687H154.453C154.462 109.687 154.471 109.681 154.478 109.669C154.485 109.657 154.489 109.641 154.489 109.624V3.853Z" fill="white"/>
<path d="M33.0605 10.4344C32.8549 10.1332 32.7207 9.75432 32.7813 9.24157C32.871 8.47445 33.3343 7.16915 33.8575 7.34319C34.0032 7.39138 34.0988 7.5623 34.1444 7.85594C34.24 8.47356 34.2484 9.1068 34.1697 9.75566C34.1646 9.79672 34.1712 9.83108 34.1896 9.85875C34.4018 10.1667 34.5322 10.5081 34.5808 10.8829C34.635 11.3077 34.5466 11.5813 34.3154 11.7036C34.1352 11.7986 33.8644 11.2979 33.7892 11.0703C33.7831 11.0517 33.7748 11.0355 33.7648 11.0229C33.7548 11.0104 33.7434 11.0017 33.7313 10.9975C33.7192 10.9933 33.7068 10.9937 33.6948 10.9987C33.6828 11.0036 33.6716 11.013 33.6619 11.0262C33.6107 11.0967 33.4849 11.2912 33.2845 11.6099C32.6739 12.5827 31.9643 13.2454 31.1558 13.5979C31.1277 13.6104 31.108 13.5935 31.0968 13.5471C31.0707 13.4346 31.0559 13.2932 31.0523 13.1227C31.0518 13.1012 31.055 13.0799 31.0614 13.0613C31.0678 13.0428 31.0771 13.0278 31.0883 13.0183C31.5297 12.6488 31.992 12.1324 32.4752 11.4693C32.7299 11.1194 32.9265 10.8088 33.0651 10.5375C33.084 10.5009 33.0825 10.4665 33.0605 10.4344ZM33.5219 9.54685C33.5539 9.55244 33.5865 9.54426 33.6176 9.52278C33.6488 9.50129 33.678 9.46693 33.7034 9.42165C33.7289 9.37637 33.7503 9.32105 33.7662 9.25886C33.7822 9.19667 33.7924 9.12883 33.7964 9.0592C33.8045 8.91859 33.7864 8.77925 33.7463 8.67184C33.7062 8.56443 33.6473 8.49774 33.5825 8.48646C33.5504 8.48087 33.5179 8.48905 33.4867 8.51053C33.4556 8.53202 33.4264 8.56638 33.4009 8.61166C33.3754 8.65695 33.3541 8.71226 33.3381 8.77445C33.3222 8.83664 33.3119 8.90448 33.3079 8.97411C33.2999 9.11473 33.3179 9.25407 33.358 9.36148C33.3981 9.46889 33.4571 9.53557 33.5219 9.54685Z" fill="white"/>
<path d="M18.4999 13.1213C18.5546 13.1642 18.5971 13.1401 18.6272 13.049L18.9962 11.9325C19.0117 11.8864 19.0342 11.8487 19.0611 11.8235C19.088 11.7982 19.1184 11.7864 19.1488 11.7892C19.2631 11.8013 19.4066 11.8722 19.5109 11.9981C19.8689 12.4274 20.0709 12.6818 20.1169 12.7612C20.2059 12.9129 20.2153 13.1427 20.1453 13.4507C19.9819 14.1682 19.537 15.4441 19.0338 14.7171C18.888 14.5056 18.74 14.249 18.5896 13.9473C18.577 13.9221 18.5594 13.9062 18.5402 13.903C18.5211 13.8997 18.502 13.9094 18.4869 13.9299C18.2644 14.2352 18.0949 14.8296 17.9599 15.1429C17.876 15.3383 17.7622 15.3624 17.6185 15.2152C17.3311 14.9215 17.0818 14.6083 16.8706 14.2753C16.8282 14.2084 16.8008 14.1236 16.7886 14.021C16.7303 13.5471 17.225 12.5028 17.3777 12.2658C17.4994 12.0766 17.6467 12.0409 17.8195 12.1587C17.963 12.2551 18.0565 12.6019 18.1862 12.796C18.2634 12.9102 18.368 13.0187 18.4999 13.1213Z" fill="white"/>
<path d="M77.9557 62.146C77.9955 61.5328 78.0185 60.8969 78.1052 60.2984C78.4893 57.6343 79.0485 55.0692 79.7828 52.6032C80.87 48.9519 82.328 45.8499 84.1567 43.2973C85.5128 41.4025 86.9887 39.8701 88.5842 38.7C89.8499 37.7709 91.1853 37.147 92.5492 36.7681C93.0232 36.636 93.4835 36.5231 93.9299 36.4294C94.0015 36.4151 94.0028 36.3901 93.9338 36.3544C92.8885 35.8171 91.977 34.9318 91.1992 33.6983C89.1304 30.4183 88.6494 25.3818 89.711 20.9317C90.3485 18.2569 91.6387 16.0854 93.2257 15.0933C95.3482 13.7653 97.664 14.274 99.492 16.6182C100.878 18.3948 101.735 21.2718 101.979 24.2399C102.177 26.6497 101.794 29.2081 101.087 31.3153C100.343 33.5368 99.2872 35.0822 97.9202 35.9515C97.4094 36.2772 97.1383 36.4522 97.1071 36.4763C97.0821 36.4959 97.0828 36.5124 97.1094 36.5258C97.2869 36.6151 97.4833 36.6695 97.6986 36.6891C97.9021 36.7079 98.0995 36.7476 98.2907 36.8083C100.998 37.6722 103.435 39.4367 105.6 42.1018C107.524 44.4688 109.221 47.7381 110.52 51.4357C111.754 54.9478 112.48 58.7504 112.697 62.8435C112.697 62.8481 112.698 62.8525 112.7 62.8558C112.702 62.859 112.704 62.8609 112.707 62.8609C112.71 62.8609 112.712 62.859 112.714 62.8558C112.716 62.8525 112.717 62.8481 112.717 62.8435C112.741 62.3802 112.753 62.0237 112.753 61.7738C112.759 57.587 112.762 54.5042 112.761 52.5255C112.76 51.8106 112.752 50.9185 112.735 49.8493C112.73 49.5289 112.715 48.278 112.688 46.0967C112.67 44.5482 112.689 43.0202 112.746 41.5127C112.781 40.5845 112.858 39.6273 112.979 38.6411C113.441 34.8345 114.281 31.2698 115.498 27.9469C116.917 24.0716 118.765 20.8938 121.044 18.4135C122.949 16.3384 125.012 14.9398 127.233 14.2178C129.511 13.4779 131.829 13.5221 134.185 14.3503C136.488 15.1607 138.645 16.7481 140.654 19.1123C142.857 21.7051 144.652 25.057 146.039 29.1679C146.294 29.923 146.526 30.6986 146.736 31.4947C147.638 34.9211 148.187 38.5286 148.384 42.3173C148.447 43.5258 148.455 45.0105 148.408 46.7715C148.387 47.5854 148.334 48.4721 148.251 49.4316C147.914 53.2926 147.21 56.8948 146.138 60.2382C143.974 66.9843 140.486 71.9485 136.295 74.4453C135.777 74.755 135.286 75.004 134.824 75.1923C131.777 76.4401 128.729 76.3535 125.678 74.9326C125.333 74.7719 124.89 74.5015 124.492 74.3074C124.484 74.3033 124.475 74.3026 124.466 74.3054C124.457 74.3082 124.449 74.3145 124.442 74.3237C124.435 74.3329 124.429 74.3448 124.425 74.3585C124.422 74.3721 124.42 74.3872 124.42 74.4024V97.9729C124.42 98.0176 124.407 98.0399 124.381 98.0399H112.916C112.81 98.0399 112.757 97.9475 112.758 97.7627C112.764 88.8831 112.762 80.4899 112.752 72.583C112.752 72.4188 112.747 72.1466 112.739 71.7664C112.734 71.5067 112.722 71.5062 112.706 71.7651C112.645 72.6888 112.552 73.6108 112.426 74.531C111.977 77.8333 111.273 80.8272 110.313 83.5128C110.031 84.3018 109.74 85.035 109.439 85.7124C107.81 89.3896 105.827 92.3028 103.493 94.452C101.502 96.2852 99.3623 97.3665 97.0734 97.6958C96.3876 97.7949 95.4451 97.8136 94.246 97.752C93.7249 97.7253 93.2153 97.6525 92.7172 97.5338C88.7668 96.5913 85.2106 93.243 82.4553 88.2226C81.6734 86.7982 80.994 85.2738 80.4172 83.6494C79.7539 81.7831 79.2267 79.9102 78.8355 78.0305C78.6749 77.2594 78.4995 76.3276 78.3093 75.2352C78.1768 74.4747 78.0743 73.7027 78.0017 72.9191C77.9889 72.7781 77.9713 72.7772 77.9487 72.9164C77.939 72.9771 77.9342 73.0753 77.9342 73.2109C77.9352 74.7425 77.9355 82.9296 77.9349 97.7721C77.9349 97.8431 77.9188 97.9112 77.89 97.9614C77.8612 98.0117 77.8222 98.0399 77.7815 98.0399H66.2939C66.289 98.0399 66.2843 98.0365 66.2808 98.0304C66.2774 98.0244 66.2754 98.0163 66.2754 98.0077V74.3141C66.2754 74.2641 66.2619 74.2471 66.2348 74.2632C64.2373 75.3985 62.177 75.9974 60.0537 76.0598C58.0348 76.1188 56.0087 75.5212 53.9754 74.2672C53.4477 73.9415 52.9795 73.6103 52.5709 73.2739C48.4651 69.8921 45.4883 64.6334 43.6407 57.4977C42.8613 54.4891 42.3886 51.1742 42.2224 47.5533C42.1917 46.8875 42.1792 46.144 42.1848 45.3229C42.1924 44.2313 42.1986 43.4852 42.2032 43.0845C42.2308 40.8175 42.4341 38.5366 42.813 36.242C43.4139 32.605 44.3617 29.283 45.6565 26.2761C47.9818 20.8755 50.9854 17.1484 54.6673 15.0947C55.8272 14.4476 57.0072 14.021 58.2074 13.8148C59.1959 13.6452 60.3682 13.6403 61.7244 13.8001C62.1831 13.8545 62.6891 13.9732 63.2424 14.1562C65.5825 14.9318 67.7247 16.408 69.669 18.5849C71.668 20.8224 73.3484 23.637 74.7102 27.0285C75.8863 29.9569 76.7583 33.2181 77.3259 36.8123C77.4829 37.8075 77.5862 38.6009 77.6358 39.1926C77.8214 41.4284 77.9173 43.6766 77.9234 45.9374C77.9398 52.5028 77.9441 57.018 77.9365 59.4831C77.9314 60.9602 77.9334 61.8479 77.9426 62.146C77.9457 62.2379 77.95 62.2379 77.9557 62.146ZM66.2432 44.8784C66.2432 42.0059 65.5894 39.2511 64.4256 37.22C63.2619 35.1888 61.6834 34.0477 60.0376 34.0477C58.3918 34.0477 56.8134 35.1888 55.6496 37.22C54.4858 39.2511 53.832 42.0059 53.832 44.8784C53.832 47.7509 54.4858 50.5057 55.6496 52.5369C56.8134 54.568 58.3918 55.7091 60.0376 55.7091C61.6834 55.7091 63.2619 54.568 64.4256 52.5369C65.5894 50.5057 66.2432 47.7509 66.2432 44.8784ZM136.756 44.8865C136.756 42.0118 136.102 39.255 134.937 37.2223C133.773 35.1897 132.193 34.0477 130.546 34.0477C128.899 34.0477 127.319 35.1897 126.155 37.2223C124.99 39.255 124.336 42.0118 124.336 44.8865C124.336 47.7611 124.99 50.5179 126.155 52.5506C127.319 54.5833 128.899 55.7252 130.546 55.7252C132.193 55.7252 133.773 54.5833 134.937 52.5506C136.102 50.5179 136.756 47.7611 136.756 44.8865ZM101.68 67.1369C101.68 64.1945 101.011 61.3726 99.8186 59.292C98.6265 57.2113 97.0096 56.0425 95.3237 56.0425C93.6378 56.0425 92.0209 57.2113 90.8288 59.292C89.6367 61.3726 88.967 64.1945 88.967 67.1369C88.967 70.0793 89.6367 72.9012 90.8288 74.9819C92.0209 77.0625 93.6378 78.2313 95.3237 78.2313C97.0096 78.2313 98.6265 77.0625 99.8186 74.9819C101.011 72.9012 101.68 70.0793 101.68 67.1369Z" fill="white"/>
<path d="M24.5904 19.0989C23.9803 18.6116 23.537 18.2787 23.2603 18.1002C22.9049 17.8708 22.5482 17.9297 22.1903 18.2769C21.8527 18.6036 21.527 18.9494 21.213 19.3145C21.1946 19.3359 21.1793 19.3305 21.167 19.2984C21.0933 19.0976 21.0691 18.9191 21.0941 18.7629C21.291 17.55 21.6472 16.6485 22.1626 16.0586C22.7809 15.3517 23.551 15.8872 24.2391 16.4388C24.7796 16.8726 25.0985 17.122 25.1956 17.1872C26.0481 17.7575 26.9694 18.0717 27.9594 18.1297C28.1844 18.1431 28.479 18.1457 28.8431 18.1377C28.8517 18.1375 28.8602 18.1404 28.8682 18.1461C28.8762 18.1519 28.8834 18.1604 28.8894 18.1712C28.8955 18.1819 28.9002 18.1947 28.9033 18.2088C28.9064 18.2228 28.9078 18.2378 28.9075 18.2528C28.8957 18.716 28.8262 19.1565 28.6989 19.5742C28.5547 20.0481 28.2056 20.1994 27.8827 20.423C27.7712 20.5006 27.7462 20.635 27.8075 20.826C27.8904 21.0803 28.022 21.2642 28.2026 21.3775C29.0765 21.9273 29.9392 21.909 30.7907 21.3226C30.9702 21.1981 31.1029 20.9277 31.1987 20.6064C31.6483 19.0922 32.1131 17.5513 32.9738 16.562C33.1924 16.3103 33.4716 16.2661 33.681 16.5031C33.7429 16.5727 33.8088 16.7199 33.8789 16.9448C34.2302 18.0739 34.4317 19.2667 34.4834 20.5234C34.492 20.7224 34.446 21.0138 34.3453 21.3976C34.2312 21.8314 34.1021 22.2183 33.9579 22.5583C33.8919 22.715 33.714 22.8073 33.5943 22.806C32.8081 22.802 32.2711 22.3174 31.6866 21.4445C31.6667 21.4141 31.6488 21.4168 31.6329 21.4525C31.5894 21.5489 31.4974 21.7658 31.3568 22.1031C30.9451 23.0921 30.4184 23.686 29.7766 23.8851C29.2274 24.0555 28.6853 23.9873 28.1504 23.6802C27.998 23.5937 27.8341 23.4361 27.6587 23.2076C27.3243 22.7712 27.1593 22.1848 27.1639 21.4485C27.1665 21.029 27.2051 20.6519 27.2798 20.3172C27.289 20.2744 27.2811 20.2481 27.256 20.2382C26.7712 20.0499 26.3716 20.0414 26.0571 20.2128C25.8883 20.3038 25.5332 20.5886 24.9916 21.0669C23.864 22.063 23.0859 22.7342 22.6574 23.0805C21.7039 23.8503 20.5832 24.4259 19.6144 23.4446C19.3521 23.1795 19.033 22.7484 18.7967 22.2825C18.5426 21.7792 18.313 21.3445 18.1079 20.9786C18.0205 20.8224 17.9289 20.7157 17.8333 20.6586C17.8077 20.6443 17.7821 20.6439 17.7566 20.6573C17.5454 20.7706 17.3618 21.0125 17.2058 21.3829C17.0105 21.8461 17.0069 22.3147 17.1951 22.7886C17.65 23.9319 18.394 24.6763 19.122 25.3135C19.1721 25.3573 19.2508 25.4488 19.3582 25.588C19.3784 25.6138 19.3921 25.6521 19.3966 25.6951C19.4493 26.1878 19.4025 26.6528 19.2562 27.0901C19.1575 27.3846 19.0299 27.5279 18.8734 27.5198C18.7814 27.5154 18.6576 27.4221 18.5022 27.24C18.1181 26.7884 17.7308 26.3953 17.3401 26.0606C17.318 26.0415 17.2936 26.0316 17.2688 26.0319C17.244 26.0321 17.2196 26.0424 17.1974 26.0619C16.6543 26.551 16.1859 26.9254 15.7921 27.1851C15.2199 27.5636 14.6551 27.5953 14.0976 27.2802C13.6765 27.0419 13.3313 26.5921 12.9394 26.0914C12.7652 25.8691 12.6425 25.9776 12.4998 26.2293C11.766 27.5189 11.2342 29.0318 10.9043 30.7677C10.711 31.7843 10.6394 32.6598 10.6895 33.3944C10.9289 36.914 13.1549 38.2568 14.8501 38.6303C15.158 38.6982 15.6671 38.7321 16.3774 38.7321C19.3153 38.7312 21.0478 38.7321 21.5751 38.7348C21.6052 38.7348 21.6231 38.7611 21.6288 38.8137C21.6395 38.92 21.6357 39.0266 21.6173 39.1337C21.6101 39.1748 21.5948 39.1998 21.5712 39.2087C20.6932 39.5523 19.5855 39.9798 18.2483 40.4912C16.3344 41.2235 14.4091 41.2476 12.6019 40.1378C12.0291 39.7853 11.5811 39.3702 11.2579 38.8927C10.4126 37.645 10.049 35.926 10.0245 33.9808C9.99534 31.6897 10.3229 29.5557 11.0071 27.5787C11.2526 26.8701 11.6093 26.0436 12.0772 25.0993C12.0838 25.0859 12.1393 24.9324 12.2436 24.6388C12.2569 24.5995 12.2559 24.5616 12.2406 24.525C11.992 23.9453 11.6906 23.6521 11.2687 23.7472C11.0406 23.7989 10.8803 23.8369 10.7877 23.861C10.7305 23.8752 10.7074 23.8328 10.7187 23.7338C10.7381 23.5615 10.7854 23.3576 10.8606 23.122C11.3339 21.6426 12.068 20.7684 13.0222 20.601C13.3546 20.5439 13.6755 20.5618 13.9849 20.6546C14.1613 20.7073 14.3408 20.8219 14.5234 20.9987C14.9105 21.3708 15.0455 21.9554 14.9284 22.7525C14.8604 23.2166 14.7379 23.6075 14.561 23.9252C14.4091 24.1997 14.1383 24.4099 13.9695 24.7191C13.9651 24.7271 13.9619 24.7368 13.96 24.7473C13.9581 24.7579 13.9576 24.7691 13.9587 24.7801C13.9597 24.791 13.9622 24.8014 13.966 24.8103C13.9697 24.8192 13.9746 24.8265 13.9803 24.8316C14.2278 25.0601 14.4965 25.2029 14.7865 25.26C15.3372 25.3698 16.0253 24.9655 16.4909 24.4607C16.5564 24.3902 16.5827 24.2885 16.5699 24.1555C16.4809 23.2545 16.4495 22.4927 16.5791 21.6065C16.7287 20.581 17.1728 19.6719 17.6331 18.9972C17.8867 18.625 18.1734 18.5251 18.493 18.6973C18.5733 18.741 18.6484 18.8584 18.7185 19.0494C18.8847 19.5055 19.0954 19.9799 19.3506 20.4725C19.8057 21.3499 20.3388 21.7573 20.9499 21.6948C21.2327 21.6654 21.7231 21.4226 22.4211 20.9665C23.1407 20.4962 23.8643 19.8977 24.592 19.1712C24.618 19.1453 24.6175 19.1213 24.5904 19.0989ZM32.2021 19.2261C32.1813 19.2826 32.1674 19.3458 32.1613 19.412C32.1551 19.4782 32.1568 19.5459 32.1662 19.6109C32.1756 19.6759 32.1926 19.7368 32.216 19.7899C32.2395 19.843 32.2689 19.8872 32.3026 19.9196L33.1471 20.7322C33.1985 20.7811 33.2573 20.8008 33.3153 20.7885C33.3734 20.7762 33.4278 20.7326 33.4709 20.6638C33.5141 20.5949 33.5439 20.5043 33.5561 20.4044C33.5683 20.3046 33.5624 20.2007 33.5391 20.107L33.1816 18.6866C33.1664 18.626 33.1443 18.5715 33.1166 18.5262C33.0889 18.4809 33.0563 18.4459 33.0207 18.4233C32.985 18.4007 32.9472 18.3908 32.9093 18.3944C32.8714 18.3981 32.8344 18.415 32.8004 18.4443L32.4161 18.7736C32.3703 18.8132 32.3316 18.8738 32.3041 18.949L32.2021 19.2261Z" fill="white"/>
<path d="M23.3685 29.4972L23.0808 30.0903C22.9944 30.2685 22.8731 30.3841 22.7405 30.4146C22.6079 30.445 22.4735 30.3881 22.3636 30.2549L22.0146 29.8319C21.953 29.7573 21.9011 29.661 21.8621 29.5493C21.8231 29.4375 21.7979 29.3128 21.7881 29.1831C21.7784 29.0534 21.7843 28.9215 21.8055 28.796C21.8266 28.6705 21.8626 28.5541 21.9111 28.4543L22.2516 27.7528C22.3001 27.6526 22.3601 27.5713 22.4277 27.5141C22.4954 27.4569 22.5691 27.4251 22.6442 27.4207C22.7193 27.4163 22.794 27.4394 22.8637 27.4885C22.9334 27.5376 22.9964 27.6117 23.0486 27.7059L23.3439 28.2374C23.4369 28.4046 23.4909 28.6262 23.4954 28.859C23.5 29.0919 23.4547 29.3193 23.3685 29.4972Z" fill="white"/>
<path d="M26.9615 52.8226C27.0479 52.6682 27.1098 52.4719 27.1471 52.2336C27.4626 50.2379 27.6654 48.2837 27.7554 46.3711C27.8142 45.1189 27.8428 43.7939 27.8413 42.3963C27.8398 41.4091 27.8674 40.7103 27.9241 40.2997C28.074 39.2135 28.3711 38.2853 28.8155 37.5151C28.9193 37.3348 29.0065 37.3326 29.0771 37.5084C29.0877 37.5349 29.0949 37.5651 29.0982 37.597C29.1015 37.6289 29.1008 37.6617 29.0962 37.6931C28.9679 38.5553 28.8807 39.1457 28.8347 39.4643C28.7618 39.9704 28.7464 40.534 29.0249 40.8125C29.1036 40.8919 29.2448 41.0258 29.4483 41.2141C29.4715 41.2356 29.4914 41.2666 29.5062 41.3046C29.521 41.3427 29.5304 41.3865 29.5335 41.4323C29.5575 41.817 29.5475 42.2084 29.5035 42.6064C29.4268 43.2919 29.11 43.4311 28.8247 43.6975C28.8103 43.7109 28.7978 43.7256 28.788 43.7407C28.7782 43.7557 28.7713 43.7707 28.7679 43.7846C28.7413 43.8943 28.7211 44.0398 28.7073 44.221C28.6664 44.7771 28.6068 45.7071 28.5286 47.011C28.4718 47.9508 28.4181 48.6555 28.3675 49.1249C28.1857 50.8185 27.8919 52.3367 27.5153 53.9941C27.5051 54.0387 27.5043 54.1052 27.513 54.1935C27.5191 54.2516 27.5327 54.31 27.5536 54.3689C27.9904 55.597 28.2356 56.909 28.2893 58.3049C28.3138 58.9493 28.221 59.4478 28.0108 59.8003C27.8901 60.0038 27.6393 60.1855 27.2583 60.3452C26.1798 60.7986 25.1274 61.094 24.1011 61.2315C23.9032 61.2569 23.571 61.2623 23.3662 61.1445C22.8944 60.8714 22.988 58.7708 23.0678 58.1108C23.0709 58.0856 23.0772 58.062 23.0861 58.0415C23.0951 58.0211 23.1066 58.0044 23.1197 57.9927C23.1328 57.9811 23.1471 57.9747 23.1618 57.974C23.1765 57.9734 23.191 57.9785 23.2043 57.989C23.3915 58.1349 23.6109 58.4482 23.8057 58.5191C24.1172 58.6334 24.3892 58.5187 24.6219 58.1751C25.3092 57.1612 25.8991 55.9915 26.3915 54.6661C26.4243 54.5787 26.4266 54.4885 26.3984 54.3957C26.3463 54.2252 26.2816 54.0418 26.2044 53.8455C25.3498 51.6856 24.4319 49.7336 23.4506 47.9897C23.2302 47.5978 22.8666 47.0226 22.3598 46.264C22.234 46.0752 22.2079 46.0471 22.0476 46.1114C21.6088 46.2872 21.2787 46.3644 21.0573 46.343C20.3785 46.28 19.6505 45.3831 19.4856 44.1514C19.415 43.6266 19.3652 43.0148 19.4257 42.4512C19.4756 41.9866 19.6643 41.4993 19.9642 41.597C20.491 41.7711 20.9653 42.0941 21.3872 42.5663C21.7027 42.9197 22.0583 43.382 22.4542 43.9533C24.2036 46.4782 25.6856 49.4306 26.9001 52.8106C26.9175 52.8597 26.9379 52.8637 26.9615 52.8226ZM27.055 55.8911C27.0515 55.8758 27.0457 55.8623 27.0382 55.8522C27.0307 55.842 27.0218 55.8355 27.0124 55.8332C27.0029 55.8309 26.9932 55.8329 26.9843 55.8391C26.9754 55.8453 26.9675 55.8553 26.9615 55.8684C26.6475 56.5511 26.3199 57.225 25.9788 57.8899C25.9313 57.9823 25.8899 58.1282 25.8561 58.2246C25.804 58.3719 25.8257 58.425 25.9213 58.3839C26.4301 58.167 26.931 57.9247 27.424 57.657C27.43 57.6539 27.4355 57.6486 27.4403 57.6415C27.445 57.6344 27.4489 57.6257 27.4515 57.6158C27.4542 57.6059 27.4557 57.5952 27.4558 57.5843C27.456 57.5734 27.4548 57.5626 27.4524 57.5525L27.055 55.8911Z" fill="white"/>
<path d="M35.7828 44.1702C35.8519 44.2712 35.8951 44.416 35.903 44.5727C35.9109 44.7293 35.8829 44.8851 35.825 45.0056L35.1676 46.3792C35.0919 46.5371 34.9806 46.6322 34.8584 46.6435C34.7361 46.6548 34.6128 46.5814 34.5156 46.4394L33.9319 45.588C33.8347 45.4461 33.7716 45.2475 33.7564 45.0356C33.7411 44.8237 33.775 44.616 33.8505 44.458L34.5079 43.0845C34.5365 43.0247 34.5716 42.9753 34.6111 42.9392C34.6507 42.9031 34.6939 42.8809 34.7384 42.874C34.7828 42.867 34.8276 42.8754 34.8702 42.8986C34.9128 42.9219 34.9523 42.9596 34.9866 43.0095L35.7828 44.1702Z" fill="white"/>
<path d="M12.2398 91.224C12.2076 91.265 12.1656 91.3351 12.114 91.4342C11.7284 92.1767 11.5341 92.5507 11.531 92.5561C11.192 93.1425 10.8074 93.5432 10.3773 93.7583C10.1871 93.8538 9.88793 93.8877 9.47985 93.86C8.59874 93.8002 7.88051 93.7645 7.32515 93.7529C7.31545 93.7527 7.30612 93.7462 7.29892 93.7346C7.29172 93.723 7.28714 93.7072 7.28602 93.69C7.23386 92.8189 7.22057 91.9376 7.24614 91.0459C7.25483 90.7425 7.28858 90.4216 7.34739 90.0834C7.38779 89.8495 7.53021 89.5162 7.77465 89.0833C7.98432 88.712 8.24538 88.3537 8.55783 88.0083C9.46528 87.0042 10.4448 86.2424 11.3853 85.5797C11.507 85.494 11.5486 85.3414 11.5103 85.1219C11.4377 84.7068 11.3837 84.1914 11.3484 83.5756C11.2963 82.6706 11.3755 81.9066 11.5862 81.2836C11.6594 81.0676 11.777 80.9846 11.9391 81.0346C11.9657 81.0435 11.9838 81.0703 11.9935 81.1149C12.0191 81.2354 12.0391 81.3519 12.0534 81.4643C12.1843 82.4532 12.3492 83.7719 12.5481 85.4204C12.7614 87.184 13.026 88.8633 13.3421 90.4582C13.8008 92.7756 14.6499 94.267 16.1311 94.4317C17.2505 94.5558 18.36 94.3371 19.4595 93.7757C19.6267 93.69 19.7446 93.5334 19.8131 93.3058C19.9496 92.8506 19.7924 92.2441 19.662 91.7916C19.1869 90.1432 18.5794 88.521 17.8394 86.9252C17.5321 86.2629 17.2196 85.677 16.902 85.1674C16.7732 84.9612 16.6919 84.8367 16.5223 84.8139C16.4318 84.8014 16.2879 84.7818 16.0905 84.755C16.0097 84.7434 15.8494 84.6274 15.6095 84.4069C15.2053 84.0348 14.765 83.431 14.5824 82.7964C14.4858 82.4608 14.427 81.9789 14.406 81.3505C14.3896 80.8561 14.4106 80.3005 14.4689 79.6837C14.5655 78.6542 14.8033 77.9433 15.2314 77.1468C15.7182 76.24 16.2531 75.3934 16.8361 74.6071C19.8302 70.5702 23.0061 67.0105 26.3639 63.9277C26.5735 63.7358 26.6827 63.6376 26.6914 63.6332C26.83 63.5644 26.9504 63.6698 27.0527 63.9491C27.0665 63.9875 27.0711 64.029 27.0665 64.0736C26.9959 64.7225 26.8814 65.2049 26.7229 65.5208C26.5919 65.7823 26.371 66.0894 26.0601 66.4419C26.0576 66.4446 25.7326 66.8119 25.0852 67.5437C25.0814 67.5478 25.0785 67.5537 25.0766 67.5606C25.0747 67.5675 25.074 67.5753 25.0746 67.5829C25.0752 67.5905 25.077 67.5976 25.0798 67.6035C25.0826 67.6094 25.0863 67.6137 25.0905 67.616C25.2956 67.732 25.5022 67.7936 25.7103 67.8008C25.7594 67.8026 25.9676 67.7852 26.3347 67.7486C27.4015 67.6423 28.4107 67.1974 29.3624 66.4138C29.8789 65.989 30.3913 65.3223 30.8996 64.4137C31.3992 63.5229 31.8045 62.4903 32.1154 61.3157C32.1471 61.1953 32.1251 61.1328 32.0494 61.1283C31.5181 61.0935 31.0458 61.0047 30.6326 60.8619C30.3984 60.7807 30.1634 60.6566 29.9277 60.4897C29.5557 60.226 29.3869 59.5258 29.3117 58.8497C29.277 58.5418 29.2913 58.1406 29.3547 57.6462C29.5199 56.3583 29.8162 55.2199 30.2437 54.2309C30.4099 53.8463 30.5746 53.5535 30.7377 53.3527C30.9024 53.1492 31.1016 53.1153 31.3353 53.251C31.4462 53.3161 31.5973 53.562 31.7886 53.9886C32.3578 55.256 32.7127 56.6278 32.8533 58.104C32.8599 58.1763 32.8842 58.2165 32.9262 58.2245C33.976 58.428 34.9914 58.2486 35.9722 57.6863C36.3719 57.4561 36.9809 57.1776 37.0415 56.2819C37.0748 55.7946 37.0627 55.3386 37.0055 54.9137C37.0013 54.8824 36.9928 54.8534 36.9807 54.8292C36.9686 54.805 36.9533 54.7863 36.936 54.7749C36.9188 54.7634 36.9001 54.7594 36.8818 54.7633C36.8634 54.7672 36.8458 54.7789 36.8306 54.7972C36.4263 55.2886 35.973 55.7638 35.5312 55.891C34.3583 56.2297 33.605 54.4371 33.7446 52.512C33.8663 50.8313 34.29 49.41 35.0157 48.248C35.1599 48.0168 35.2972 47.886 35.4276 47.8557C35.6137 47.8111 35.7779 47.8843 35.9201 48.0753C36.2215 48.4809 36.3949 48.9281 36.6933 49.6135C37.1274 50.6096 37.4529 51.6627 37.6697 52.773C37.8579 53.7369 37.8996 54.8151 37.7948 56.0075C37.627 57.9175 37.0413 59.2893 36.0374 60.1229C35.3905 60.6602 34.6541 60.9735 33.8282 61.0627C33.6411 61.0832 33.425 61.0551 33.1801 60.9784C33.0522 60.9382 32.9658 61.0542 32.9208 61.3265C32.9193 61.3372 32.8359 61.8106 32.6707 62.7469C32.481 63.8206 32.2084 64.797 31.853 65.6761C31.0706 67.6102 30.0034 68.6937 28.6513 68.9267C27.5089 69.123 26.3652 68.9088 25.2202 68.2841C25.1583 68.251 25.0276 68.1283 24.8282 67.9159C24.8067 67.8936 24.7842 67.8887 24.7607 67.9012C24.6533 67.9574 24.5492 68.0386 24.4485 68.1448C22.0128 70.7376 19.6272 73.4468 17.2917 76.2725C16.6305 77.0731 16.0762 77.8465 15.6287 78.5926C15.4937 78.8184 15.3876 79.0389 15.3104 79.254C15.2992 79.2855 15.2945 79.3227 15.297 79.3596C15.2995 79.3966 15.3091 79.431 15.3242 79.4575C15.4814 79.7266 15.6448 79.985 15.8327 80.2259C16.9557 81.6683 17.9537 83.3462 18.8266 85.2597C19.5784 86.9064 20.092 88.666 20.3677 90.5385C20.4827 91.3213 20.5257 92.22 20.4965 93.2348C20.474 94.0077 20.3766 94.6419 20.2043 95.1372C19.8054 96.2832 19.1542 96.6554 18.4109 96.8415C17.4045 97.0945 16.385 97.2351 15.3832 96.9914C14.6356 96.8085 14.0186 96.2707 13.5323 95.3782C13.1846 94.7392 12.8972 93.9868 12.6701 93.121C12.5144 92.5253 12.45 91.8773 12.3426 91.2842C12.3242 91.1807 12.2899 91.1606 12.2398 91.224ZM36.1494 52.2107L35.3279 50.5266C35.3056 50.4808 35.2784 50.4432 35.2478 50.4158C35.2172 50.3884 35.1839 50.3718 35.1496 50.3669C35.1153 50.3621 35.0808 50.3691 35.0481 50.3875C35.0154 50.4059 34.9851 50.4354 34.9589 50.4743L34.9014 50.56C34.8065 50.7008 34.7271 50.8704 34.6679 51.059C34.6087 51.2476 34.5708 51.4515 34.5563 51.6591C34.5419 51.8668 34.5511 52.074 34.5836 52.2691C34.6161 52.4641 34.6712 52.6431 34.7457 52.7958L34.7725 52.8507C34.9228 53.1589 35.143 53.3414 35.3847 53.3583C35.6264 53.3751 35.8697 53.2248 36.0612 52.9404L36.1195 52.8547C36.1457 52.8159 36.1673 52.7684 36.183 52.715C36.1987 52.6616 36.2082 52.6033 36.2109 52.5435C36.2137 52.4837 36.2097 52.4235 36.1992 52.3664C36.1886 52.3093 36.1717 52.2564 36.1494 52.2107ZM31.659 57.8162C31.4565 57.3115 31.0653 56.4587 30.6886 56.0343C30.6523 55.9935 30.6088 55.9768 30.5661 55.9874C30.5234 55.998 30.4844 56.0351 30.4562 56.0918C30.2629 56.4814 30.055 57.1093 30.0895 57.6314C30.1248 58.1777 30.3994 58.2406 30.694 58.3303C31.0576 58.4401 31.4002 58.3914 31.7219 58.1843C31.7262 58.1814 31.7302 58.177 31.7335 58.1713C31.7368 58.1656 31.7394 58.1588 31.7411 58.1512C31.7429 58.1437 31.7437 58.1356 31.7435 58.1275C31.7434 58.1193 31.7423 58.1114 31.7403 58.104C31.6937 57.9309 31.6666 57.8349 31.659 57.8162ZM8.18043 90.1583C8.10835 90.2183 8.0494 90.3176 8.01247 90.4412C7.97555 90.5648 7.96265 90.706 7.97572 90.8435C7.98879 90.981 8.02713 91.1074 8.08495 91.2035C8.14277 91.2997 8.21693 91.3604 8.29626 91.3766L9.98075 91.7167C10.0313 91.7268 10.0825 91.7186 10.1311 91.6926L11.8624 90.7675C11.9498 90.7208 12.0241 90.619 12.0709 90.4819C12.1177 90.3448 12.1336 90.1822 12.1155 90.0258L11.877 87.9748C11.8658 87.8792 11.8424 87.7894 11.8084 87.712C11.7744 87.6346 11.7308 87.5718 11.6808 87.5282C11.6308 87.4846 11.5759 87.4614 11.52 87.4604C11.4641 87.4593 11.4089 87.4805 11.3584 87.5223L8.18043 90.1583Z" fill="white"/>
<path d="M21.4385 56.9528C21.4191 56.8127 21.3986 56.7055 21.3772 56.6315C20.8448 54.7813 20.143 53.2658 19.0575 52.417C18.7476 52.1751 18.54 52.0105 18.4347 51.923C18.3677 51.8677 18.3086 51.7945 18.2575 51.7034C18.2386 51.6695 18.2317 51.6294 18.2368 51.5829C18.3171 50.7984 18.4608 50.0518 18.6679 49.3432C18.7407 49.0942 18.8957 49.1758 19.0207 49.1638C19.1593 49.1495 19.2994 49.208 19.4411 49.3392C20.6341 50.4405 21.4736 52.1372 21.9594 54.4292C22.1384 55.2735 22.1887 56.0558 22.1105 56.7761C22.0123 57.6775 21.8471 58.5008 21.615 59.2461C21.4754 59.6919 21.1632 60.0561 20.8824 60.2676C20.2028 60.7835 19.4869 61.0503 18.7346 61.0682C18.1677 61.0816 17.5894 60.8352 17.1138 60.3492C16.9926 60.2274 16.9412 60.0534 16.9489 59.791C16.9739 59.0029 17.024 58.2871 17.0992 57.6436C17.1009 57.6296 17.1042 57.6164 17.1089 57.6048C17.1136 57.5931 17.1196 57.5832 17.1266 57.5757C17.1335 57.5682 17.1413 57.5632 17.1494 57.5611C17.1575 57.559 17.1657 57.5597 17.1736 57.5633C17.2028 57.5775 17.2393 57.5932 17.2833 57.6101C17.3298 57.6289 17.3651 57.6494 17.3892 57.6717C17.9977 58.2376 18.562 58.5241 19.0821 58.5312C19.8205 58.541 20.5439 58.2041 21.2521 57.5204C21.289 57.4847 21.3373 57.395 21.3971 57.2513C21.4385 57.1505 21.4523 57.051 21.4385 56.9528Z" fill="white"/>
<path d="M35.0188 93.6244C34.981 93.7538 34.9296 93.9336 34.8646 94.1639C34.5793 95.1751 34.13 95.9061 33.5169 96.3568C32.9408 96.7799 32.2075 97.0503 31.6406 96.6058C31.2315 96.2845 30.8697 95.8213 30.5552 95.2162C30.5384 95.1832 30.5187 95.1778 30.4962 95.2001C30.1336 95.5634 29.8917 95.8003 29.7705 95.911C28.648 96.9401 27.4719 97.2275 26.242 96.7732C25.2287 96.3983 24.7961 95.1024 24.5859 93.4611C24.4856 92.6783 24.4059 91.3971 24.3466 89.6174C24.2151 85.685 24.0134 81.4081 23.7413 76.7866C23.6856 75.8477 23.7973 74.9824 24.0765 74.1907C24.1251 74.0533 24.186 73.9689 24.2591 73.9377C24.2909 73.9245 24.3244 73.9322 24.353 73.9594C24.3816 73.9866 24.4034 74.0314 24.4141 74.085C24.4851 74.4402 24.5332 74.8217 24.5583 75.2296C24.8651 80.1893 25.1057 85.1374 25.2801 90.074C25.3128 91.0102 25.4271 91.8469 25.623 92.5842C25.7943 93.2286 26.0814 93.7105 26.4844 94.03C26.6046 94.1246 26.8472 94.1911 27.2123 94.2295C27.3739 94.2474 27.7656 94.2286 28.3875 94.1733C28.9372 94.1242 29.4788 93.8734 30.0121 93.4209C30.2504 93.2192 30.5678 92.9032 30.9641 92.473C31.0597 92.3686 31.139 92.2914 31.2019 92.2414C31.2678 92.1888 31.3008 92.2258 31.3008 92.3526V93.6927C31.3008 93.7409 31.3141 93.773 31.3407 93.7891C32.208 94.3121 33.0876 94.2746 33.9794 93.6766C34.319 93.449 34.5586 93.0554 34.6982 92.4958C34.7729 92.1959 34.9439 91.5917 35.2114 90.6831C35.6174 89.3042 36.1712 88.2617 36.8728 87.5557C37.3096 87.1166 37.6473 87.2956 37.8861 88.0926C38.2267 89.2287 38.4678 90.4341 38.6095 91.7086C38.6509 92.0808 38.6568 92.4119 38.6271 92.702C38.5489 93.4606 38.365 94.1635 38.0756 94.8105C37.8831 95.2416 37.5931 95.2805 37.2817 95.2456C36.4272 95.1528 35.6915 94.6062 35.0748 93.6056C35.0518 93.5682 35.0331 93.5744 35.0188 93.6244ZM36.7754 89.7192C36.7663 89.705 36.7548 89.6962 36.7427 89.6943C36.7305 89.6924 36.7183 89.6974 36.7079 89.7085C36.4287 90.0084 36.1393 90.3631 35.8396 90.7728C35.7383 90.9093 35.7015 90.983 35.7537 91.1932C35.8733 91.6778 36.039 91.9938 36.342 92.2214C36.5814 92.4025 36.902 92.6212 37.3039 92.8774C37.3416 92.9014 37.3825 92.9056 37.4215 92.8896C37.4606 92.8735 37.4961 92.8379 37.5238 92.7871C37.5514 92.7362 37.5701 92.6724 37.5773 92.6033C37.5846 92.5342 37.5802 92.4629 37.5647 92.3981C37.3643 91.5662 37.1723 90.8366 36.9887 90.2092C36.9309 90.011 36.8598 89.8477 36.7754 89.7192Z" fill="white"/>
<path d="M35.9593 83.3361C35.927 83.2656 35.8933 83.2634 35.858 83.3294C35.1543 84.645 34.3175 85.6406 33.3474 86.3163C33.1101 86.4814 32.9219 86.5604 32.7828 86.5532C32.7709 86.5528 32.7592 86.5476 32.7485 86.5381C32.7379 86.5286 32.7286 86.515 32.7215 86.4983C32.6253 86.2761 32.6384 86.1007 32.7606 85.9722C33.073 85.642 33.4126 85.2626 33.7792 84.8342C34.3259 84.1961 34.7913 83.557 35.1753 82.9171C35.2397 82.81 35.2446 82.6953 35.1899 82.573C35.151 82.4856 35.0989 82.3744 35.0334 82.2397C34.8196 81.7988 34.7844 81.2829 34.9276 80.6921C35.1168 79.9147 35.4006 79.3033 35.779 78.8579C36.25 78.3037 36.4724 79.1592 36.5407 79.8245C36.6056 80.4654 36.5788 81.116 36.4602 81.7765C36.4568 81.796 36.4567 81.8167 36.46 81.836C36.4633 81.8553 36.4697 81.8723 36.4786 81.8849C36.6243 82.0946 36.7601 82.3093 36.8859 82.5289C37.0009 82.731 37.0777 82.9439 37.07 83.2277C37.0598 83.6347 36.9444 83.9515 36.724 84.1782C36.6223 84.2835 36.5479 84.3054 36.5008 84.2438C36.2927 83.9725 36.1122 83.6699 35.9593 83.3361ZM35.7752 80.3279L35.4913 80.6599C35.4768 80.677 35.4643 80.699 35.4546 80.7245C35.4448 80.7501 35.4381 80.7788 35.4348 80.8089C35.4314 80.839 35.4315 80.8699 35.435 80.9C35.4386 80.93 35.4454 80.9585 35.4553 80.9839L35.4622 81.0013C35.53 81.1773 35.621 81.3156 35.7152 81.3859C35.8094 81.4562 35.8991 81.4527 35.9646 81.3762L35.9761 81.3628C36.0087 81.3248 36.0342 81.27 36.0514 81.2015C36.0686 81.133 36.077 81.052 36.0762 80.9634C36.0754 80.8747 36.0655 80.7801 36.0468 80.6848C36.0282 80.5896 36.0013 80.4956 35.9677 80.4082L35.9608 80.3908C35.951 80.3654 35.9384 80.3436 35.9238 80.3266C35.9091 80.3097 35.8927 80.2979 35.8755 80.2921C35.8582 80.2862 35.8405 80.2864 35.8233 80.2926C35.8061 80.2987 35.7897 80.3107 35.7752 80.3279Z" fill="white"/>
<path d="M22.7004 97.0612C23.1038 96.0611 23.1491 94.8335 22.7011 93.8562C22.4485 93.3037 22.1578 92.8253 21.829 92.421C21.8 92.385 21.7779 92.3348 21.7654 92.2768C21.753 92.2188 21.7508 92.1557 21.7592 92.0957C21.8517 91.4272 21.9773 90.7333 22.1358 90.0139C22.1665 89.8755 22.1885 89.7916 22.2018 89.7622C22.2181 89.7247 22.2399 89.7064 22.267 89.7073C22.4066 89.7127 22.5002 89.7506 22.5477 89.8211C23.3465 90.9894 23.7564 92.4812 23.7773 94.2966C23.7891 95.2918 23.6635 96.3668 23.4007 97.5217C23.1419 98.657 22.75 99.778 22.2248 100.885C21.9041 101.559 21.6193 102.065 21.3703 102.4C21.0205 102.873 20.6423 103.145 20.2358 103.214C19.123 103.406 18.0092 103.222 16.8944 102.663C16.5707 102.5 16.2774 102.29 16.0146 102.033C15.9532 101.973 15.9304 101.882 15.9463 101.76C15.95 101.732 15.959 101.707 15.972 101.689C15.985 101.671 16.0011 101.661 16.0176 101.661C16.9573 101.668 17.8678 101.707 18.7753 101.554C19.6198 101.411 20.3884 100.924 21.0818 99.9837C21.7267 99.11 22.2662 98.1358 22.7004 97.0612Z" fill="white"/>
<path d="M27.7823 104.391C27.7194 104.523 27.6291 104.605 27.5313 104.621C27.4335 104.636 27.3362 104.584 27.2607 104.474L26.5366 103.422C26.4886 103.352 26.4494 103.266 26.4212 103.168C26.393 103.07 26.3762 102.962 26.3719 102.851C26.3677 102.74 26.3759 102.627 26.3963 102.519C26.4166 102.412 26.4487 102.311 26.4905 102.223L26.9983 101.16C27.0829 100.984 27.2024 100.87 27.3306 100.844C27.4587 100.819 27.5851 100.883 27.6818 101.024L28.4051 102.076C28.4806 102.186 28.528 102.344 28.5369 102.514C28.5458 102.685 28.5155 102.855 28.4527 102.987L27.7823 104.391Z" fill="white"/>
</svg>
