<svg width="64" height="64" viewBox="0 0 64 64" fill="none" xmlns="http://www.w3.org/2000/svg">
<g clip-path="url(#clip0_111_120)">
<path d="M32.0492 0.199428C32.8209 0.199428 33.3996 0.210249 33.7855 0.231891C36.9892 0.40936 40.0173 1.0237 42.8698 2.07491C49.0633 4.35788 54.0565 8.11039 57.8495 13.3324C61.3958 18.2143 63.394 23.7326 63.8442 29.8871C63.8806 30.3873 63.8989 31.0793 63.8989 31.9629C63.8989 32.8465 63.8803 33.5385 63.8432 34.0387C63.3918 40.1932 61.3927 45.7112 57.8458 50.5925C54.0515 55.8133 49.0574 59.5645 42.8633 61.8463C40.0108 62.8969 36.9827 63.5106 33.779 63.6874C33.3932 63.7091 32.8147 63.7199 32.0436 63.7199C31.2719 63.7199 30.6931 63.7091 30.3072 63.6874C27.1035 63.51 24.0754 62.8956 21.2229 61.8444C15.0295 59.5614 10.0362 55.8089 6.24324 50.5869C2.69696 45.705 0.698737 40.1868 0.248572 34.0322C0.212089 33.532 0.193848 32.84 0.193848 31.9564C0.193848 31.0728 0.212089 30.3808 0.248572 29.8806C0.699973 23.7261 2.69943 18.2082 6.24695 13.3268C10.0412 8.10544 15.035 4.35386 21.2285 2.07212C24.0816 1.02153 27.11 0.407814 30.3137 0.230964C30.6996 0.209321 31.2781 0.198809 32.0492 0.199428ZM1.22527 31.8609C1.20857 38.0002 3.02747 44.0459 6.45936 49.0973C9.92463 54.1981 14.5159 57.9583 20.2333 60.378C20.7774 60.608 21.3534 60.8272 21.9613 61.0356C25.2287 62.1554 28.5758 62.72 32.0028 62.7293C35.4303 62.7392 38.7809 62.1932 42.0545 61.0913C42.6629 60.8866 43.2402 60.6705 43.7862 60.4429C49.5165 58.0554 54.1285 54.3209 57.6223 49.2392C61.082 44.2073 62.9343 38.1718 62.9519 32.0325C62.9686 25.894 61.1497 19.8484 57.7178 14.797C54.2525 9.69616 49.6612 5.93593 43.9439 3.5163C43.3997 3.28627 42.8237 3.06706 42.2159 2.85867C38.9485 1.73883 35.6013 1.17396 32.1744 1.16407C28.7468 1.15479 25.3962 1.70111 22.1227 2.80302C21.5136 3.0077 20.9363 3.22351 20.3909 3.45044C14.6606 5.83854 10.0486 9.57342 6.55489 14.6551C3.09518 19.687 1.24289 25.7224 1.22527 31.8609Z" fill="white"/>
<path d="M55.8599 40.7031C55.8582 40.708 55.8583 40.7135 55.8601 40.7184C55.862 40.7233 55.8655 40.7274 55.8702 40.73L59.1175 42.6055C59.1274 42.6111 59.135 42.6202 59.1387 42.6311C59.1425 42.642 59.1422 42.654 59.1379 42.6648C58.0125 45.4722 56.4854 48.0461 54.5568 50.3866C54.5271 50.4224 54.4921 50.4283 54.452 50.4042L51.2473 48.4684C51.2195 48.4517 51.1944 48.4557 51.1722 48.4805C50.3151 49.4426 49.4111 50.3219 48.4601 51.1184C48.4465 51.1295 48.4452 51.1447 48.4564 51.1638L50.3708 54.4807C50.3754 54.4887 50.3771 54.4981 50.3754 54.5072C50.3737 54.5164 50.3688 54.5247 50.3615 54.5308C47.9128 56.5034 45.2134 58.0421 42.2632 59.1471C42.2403 59.1558 42.2227 59.1493 42.2103 59.1277L40.2551 55.7422C40.2485 55.7309 40.2383 55.7223 40.2261 55.7178C40.214 55.7132 40.2006 55.713 40.1883 55.7171C39.0672 56.0925 37.9366 56.3797 36.7963 56.5788C36.7804 56.5816 36.7661 56.5899 36.7557 56.6021C36.7454 56.6143 36.7397 56.6297 36.7397 56.6456V60.5709C36.7396 60.5801 36.7363 60.5889 36.7304 60.5958C36.7245 60.6028 36.7163 60.6074 36.7073 60.6089C33.6588 61.0882 30.6053 61.0922 27.5469 60.621C27.4931 60.613 27.4662 60.5817 27.4662 60.5273V56.6094C27.4662 56.5773 27.4508 56.5568 27.4198 56.5482C27.2949 56.5123 27.0708 56.4591 26.7474 56.3886C25.8266 56.1889 24.8895 55.9236 23.936 55.5928C23.9277 55.5899 23.9185 55.5899 23.9101 55.593C23.9016 55.596 23.8944 55.6018 23.8896 55.6095L21.8954 59.0637C21.8852 59.0813 21.8692 59.0947 21.8501 59.1015C21.8311 59.1083 21.8103 59.108 21.7915 59.1008C18.8822 57.9982 16.2211 56.4731 13.8082 54.5252C13.7979 54.5169 13.7908 54.5051 13.7883 54.4921C13.7857 54.479 13.7879 54.4655 13.7943 54.4538L15.8052 50.9709C15.8109 50.9613 15.813 50.9499 15.8112 50.9387C15.8093 50.9275 15.8036 50.9173 15.795 50.9097C14.8551 50.1071 13.9814 49.2389 13.1738 48.3052C13.1631 48.2925 13.1481 48.2842 13.1316 48.2816C13.1151 48.2791 13.0982 48.2825 13.0838 48.2913L9.7076 50.4116C9.69452 50.4198 9.6789 50.4229 9.66369 50.4203C9.64847 50.4178 9.63473 50.4097 9.62505 50.3977C7.66919 48.0257 6.12762 45.4181 5.00036 42.5749C4.9917 42.5532 4.99757 42.5365 5.01798 42.5248L8.51943 40.5027C8.52912 40.4973 8.53657 40.4886 8.54047 40.4781C8.54437 40.4675 8.54447 40.4559 8.54076 40.4452C8.13265 39.3279 7.80801 38.1839 7.56685 37.0133C7.56067 36.9837 7.54242 36.9688 7.51212 36.9688H3.45694C3.44622 36.9688 3.43588 36.9649 3.42774 36.9579C3.41959 36.951 3.41416 36.9414 3.41241 36.9308C2.8528 33.6467 2.84816 30.3536 3.3985 27.0516C3.40716 27.0003 3.43746 26.9734 3.4894 26.9709L7.54366 26.7808C7.58138 26.7789 7.60395 26.7597 7.61137 26.7233C7.85624 25.5577 8.18953 24.414 8.61125 23.2923C8.61515 23.2822 8.61532 23.2711 8.61173 23.2611C8.60815 23.251 8.60106 23.2426 8.59178 23.2376L5.09033 21.2155C5.06497 21.2007 5.05786 21.1794 5.06899 21.1515C6.22099 18.2972 7.78482 15.693 9.76047 13.3389C9.76601 13.3322 9.77384 13.3278 9.78252 13.3264C9.7912 13.3251 9.80017 13.3269 9.80778 13.3315L13.2341 15.5186C13.2388 15.5215 13.2444 15.5226 13.2498 15.5218C13.2552 15.5209 13.2602 15.5182 13.2638 15.514C14.0905 14.5753 14.9785 13.7044 15.9277 12.9011C15.9371 12.893 15.9435 12.8819 15.9457 12.8697C15.9479 12.8575 15.9458 12.845 15.9397 12.8343L13.991 9.28929C13.9743 9.25837 13.9798 9.23178 14.0077 9.20952C16.4731 7.25922 19.1827 5.74517 22.1366 4.66738C22.1456 4.6642 22.1555 4.66432 22.1644 4.66773C22.1732 4.67114 22.1805 4.6776 22.1848 4.68593L24.0436 8.24674C24.0496 8.25809 24.0594 8.26695 24.0713 8.27171C24.0832 8.27647 24.0964 8.27683 24.1085 8.27271C25.2438 7.88871 26.4193 7.58293 27.635 7.35538C27.6653 7.34981 27.6792 7.33188 27.6768 7.30158L27.3725 3.37068C27.3701 3.33667 27.3852 3.31503 27.418 3.30575C27.5002 3.28411 27.5979 3.26494 27.7111 3.24825C30.7596 2.80117 33.792 2.81972 36.8084 3.3039C36.8161 3.30526 36.823 3.30942 36.8278 3.31559C36.8326 3.32176 36.8349 3.32949 36.8343 3.33729L36.4577 7.21532C36.4534 7.26417 36.4754 7.29261 36.5236 7.30065C37.743 7.50285 38.9324 7.79503 40.0918 8.17717C40.1006 8.18006 40.1102 8.17979 40.1188 8.17641C40.1275 8.17302 40.1346 8.16673 40.1391 8.15862L42.0174 4.69984C42.0298 4.67696 42.0483 4.67016 42.0731 4.67943C45.0263 5.76094 47.7316 7.27684 50.189 9.22714C50.1921 9.22948 50.1942 9.23288 50.1951 9.23677C50.1959 9.24066 50.1954 9.2448 50.1936 9.24848L48.333 12.6748C48.3243 12.6909 48.3271 12.7048 48.3413 12.7165C49.3289 13.5235 50.2378 14.3954 51.0683 15.3322C51.0893 15.3563 51.1134 15.3597 51.1406 15.3424L54.3638 13.3194C54.3705 13.3151 54.3785 13.3134 54.3864 13.3146C54.3943 13.3158 54.4014 13.3198 54.4065 13.3259C56.3908 15.6961 57.9596 18.3105 59.1128 21.1692C59.1183 21.1822 59.1187 21.1968 59.1141 21.2101C59.1095 21.2235 59.1001 21.2346 59.0878 21.2415L55.8794 23.0938C55.8639 23.1028 55.852 23.1171 55.8461 23.1339C55.8401 23.1508 55.8404 23.1691 55.847 23.1856C56.2916 24.3636 56.6419 25.558 56.8979 26.7687C56.9084 26.8176 56.9384 26.8429 56.9878 26.8448L60.7175 26.982C60.7496 26.9833 60.7685 26.9997 60.774 27.0312C61.3275 30.3221 61.3253 33.6084 60.7675 36.89C60.7638 36.9122 60.7505 36.9234 60.7277 36.9234H56.9628C56.9576 36.9233 56.9525 36.9251 56.9485 36.9285C56.9444 36.9319 56.9416 36.9366 56.9405 36.9419C56.6833 38.2275 56.3231 39.4812 55.8599 40.7031ZM22.8619 11.1787L20.967 7.89613C20.9601 7.88428 20.9491 7.87542 20.936 7.8713C20.923 7.86718 20.9089 7.86809 20.8965 7.87387C19.7241 8.41741 18.5946 9.04318 17.5082 9.7512C17.5011 9.75583 17.4962 9.76328 17.4945 9.77206C17.4928 9.78084 17.4943 9.79029 17.4989 9.79851L19.3939 13.2452C19.3988 13.2539 19.3973 13.261 19.3892 13.2666C17.2015 14.8112 15.3517 16.6799 13.8398 18.8726C13.8359 18.8782 13.8309 18.883 13.8252 18.8867C13.8194 18.8904 13.813 18.8929 13.8063 18.8941C13.7996 18.8953 13.7927 18.8952 13.786 18.8937C13.7793 18.8922 13.773 18.8895 13.7674 18.8856L10.4496 16.5909C10.4388 16.5833 10.4254 16.5803 10.4124 16.5825C10.3993 16.5848 10.3877 16.5921 10.3801 16.6029C9.66586 17.6096 9.0237 18.6599 8.45357 19.7538C8.44632 19.7679 8.44468 19.7843 8.44898 19.7996C8.45328 19.8149 8.4632 19.828 8.47676 19.8363L12.0088 21.9696C12.0274 21.9808 12.032 21.9962 12.0227 22.016C10.8732 24.4462 10.1791 27 9.94041 29.6775C9.93973 29.6882 9.93509 29.6984 9.92738 29.7059C9.91967 29.7134 9.90945 29.7178 9.89867 29.7183L5.58841 29.9205C5.57974 29.9209 5.5715 29.9245 5.5652 29.9306C5.5589 29.9368 5.55496 29.945 5.5541 29.9539C5.46629 31.2407 5.46381 32.533 5.54667 33.831C5.54915 33.8607 5.56523 33.8755 5.59491 33.8755H9.90331C9.91618 33.8754 9.92861 33.8802 9.93821 33.889C9.9478 33.8977 9.95388 33.9098 9.95525 33.9228C10.2335 36.5403 10.9013 39.0382 12.0227 41.3932C12.0388 41.4259 12.0314 41.4519 12.0005 41.4711L8.30795 43.789C8.30077 43.7936 8.29556 43.8007 8.29333 43.8089C8.2911 43.8172 8.29201 43.8259 8.29589 43.8335C8.86664 44.9614 9.50756 46.0373 10.2187 47.0613C10.2272 47.0739 10.2402 47.0828 10.255 47.0861C10.2699 47.0893 10.2854 47.0868 10.2984 47.079L14.003 44.8436C14.0129 44.8378 14.0246 44.8359 14.0359 44.8383C14.0472 44.8407 14.0573 44.8472 14.0642 44.8566C15.5248 46.8953 17.2785 48.644 19.3252 50.1027C19.3369 50.111 19.3453 50.1232 19.3489 50.1369C19.3524 50.1507 19.351 50.1652 19.3447 50.1779L17.4099 54.0411C17.4062 54.0485 17.4055 54.0571 17.4077 54.0651C17.4099 54.0731 17.415 54.0801 17.4219 54.0846C18.3117 54.6758 19.26 55.2218 20.2667 55.7227C20.2827 55.7308 20.3012 55.7326 20.3185 55.7278C20.3358 55.723 20.3508 55.7119 20.3604 55.6967L22.6393 52.1275C22.664 52.0892 22.6968 52.0796 22.7376 52.0988C25.0546 53.1908 27.4959 53.863 30.0615 54.1153C30.0843 54.1171 30.0958 54.1295 30.0958 54.1524V58.3569C30.0957 58.37 30.1007 58.3827 30.1097 58.3924C30.1186 58.402 30.1309 58.4079 30.144 58.4088C31.4184 58.5016 32.6774 58.5037 33.9209 58.4153C33.9698 58.4122 33.9939 58.3863 33.9933 58.3374L33.9256 54.2117C33.9253 54.1991 33.9297 54.1868 33.9381 54.1772C33.9465 54.1676 33.9583 54.1614 33.971 54.1598C34.6178 54.0911 35.0337 54.0445 35.2186 54.0197C37.0606 53.7699 38.8053 53.3111 40.4526 52.6433C40.8305 52.4899 41.1817 52.3486 41.5063 52.2194C41.5292 52.2101 41.5471 52.216 41.5601 52.237L43.7658 55.7505C43.7794 55.7721 43.7976 55.7774 43.8205 55.7663C44.821 55.2765 45.8048 54.7126 46.7719 54.0744C46.7826 54.0672 46.7903 54.0564 46.7936 54.0439C46.7968 54.0315 46.7954 54.0182 46.7896 54.0067L44.8742 50.3374C44.8587 50.3083 44.8649 50.2842 44.8928 50.2651C46.9927 48.807 48.7995 47.0397 50.3133 44.9633C50.3226 44.9503 50.334 44.9481 50.3476 44.9568L53.8834 47.092C53.8932 47.098 53.9049 47.1 53.9161 47.0976C53.9274 47.0952 53.9372 47.0885 53.9437 47.079C54.6678 46.0395 55.3133 44.9565 55.8804 43.8298C55.8879 43.8145 55.8908 43.7977 55.8886 43.7827C55.8864 43.7678 55.8791 43.7558 55.8683 43.7491L52.3808 41.6427C52.3424 41.6198 52.3331 41.5883 52.3529 41.5481C53.5012 39.1693 54.2111 36.6658 54.4826 34.0378C54.4847 34.0176 54.4944 33.999 54.5097 33.9858C54.525 33.9725 54.5449 33.9656 54.5651 33.9664L58.5572 34.1139C58.59 34.1151 58.6076 34.0993 58.6101 34.0666C58.7171 32.6413 58.7155 31.2178 58.6055 29.7962C58.6045 29.7811 58.5978 29.7669 58.5868 29.7566C58.5758 29.7462 58.5612 29.7405 58.5461 29.7405H54.566C54.5529 29.7406 54.5403 29.7357 54.5305 29.7268C54.5207 29.7179 54.5145 29.7056 54.5132 29.6923C54.2621 26.9196 53.5263 24.2758 52.3056 21.7609C52.2883 21.7257 52.297 21.6985 52.3316 21.6793L55.6893 19.8335C55.7276 19.8119 55.7366 19.7819 55.7162 19.7435C55.1423 18.6503 54.5042 17.6065 53.8017 16.6122C53.7933 16.6002 53.7805 16.592 53.7661 16.5894C53.7517 16.5868 53.7368 16.59 53.7248 16.5983L50.5674 18.7724C50.565 18.7741 50.5622 18.7752 50.5594 18.7759C50.5565 18.7765 50.5535 18.7765 50.5507 18.776C50.5478 18.7755 50.5451 18.7744 50.5428 18.7728C50.5404 18.7713 50.5384 18.7692 50.5368 18.7669C48.9977 16.5711 47.1334 14.7089 44.9438 13.1803C44.9332 13.1731 44.9256 13.1623 44.9223 13.15C44.9191 13.1377 44.9205 13.1248 44.9262 13.1135L46.6078 9.75398C46.6189 9.73234 46.6143 9.71472 46.5939 9.70111C45.5321 9.01536 44.4089 8.39576 43.2241 7.84233C43.2151 7.83826 43.2048 7.83772 43.1955 7.84082C43.1862 7.84393 43.1785 7.85044 43.174 7.85903L41.3978 11.1295C41.3935 11.1375 41.3863 11.1435 41.3777 11.1464C41.3691 11.1494 41.3597 11.149 41.3514 11.1453C38.9943 10.0879 36.5177 9.4581 33.9219 9.2559C33.8854 9.25281 33.8668 9.23333 33.8662 9.19746L33.8059 5.52442C33.8057 5.50921 33.7998 5.49465 33.7893 5.48364C33.7788 5.47263 33.7645 5.46599 33.7493 5.46506C32.6808 5.40693 31.6176 5.40446 30.5595 5.45764C30.5119 5.45949 30.4869 5.48454 30.4844 5.53277L30.2961 9.22807C30.2949 9.26208 30.2773 9.28032 30.2433 9.2828C28.0493 9.47696 25.9815 9.96886 24.0399 10.7585C23.4858 10.9836 23.1173 11.132 22.9343 11.2037C22.9034 11.2161 22.8792 11.2077 22.8619 11.1787Z" fill="white"/>
<path d="M30.1639 11.511L29.8088 11.5565C29.791 11.5588 29.7784 11.575 29.7807 11.5928L29.854 12.1651C29.8563 12.1828 29.8726 12.1954 29.8903 12.1931L30.2455 12.1476C30.2632 12.1454 30.2758 12.1291 30.2735 12.1113L30.2002 11.5391C30.198 11.5213 30.1817 11.5087 30.1639 11.511Z" fill="white"/>
<path d="M33.0747 11.5278L32.7242 11.518C32.6899 11.5171 32.6613 11.5441 32.6604 11.5784L32.6439 12.1681C32.6429 12.2024 32.67 12.231 32.7043 12.232L33.0548 12.2417C33.0891 12.2427 33.1177 12.2157 33.1186 12.1814L33.1351 11.5917C33.136 11.5574 33.109 11.5288 33.0747 11.5278Z" fill="white"/>
<path d="M29.582 11.5764L29.284 11.6157C29.2505 11.6201 29.2269 11.6508 29.2313 11.6844L29.2998 12.2048C29.3043 12.2384 29.335 12.262 29.3685 12.2575L29.6665 12.2183C29.7 12.2139 29.7236 12.1832 29.7192 12.1496L29.6507 11.6291C29.6462 11.5956 29.6155 11.572 29.582 11.5764Z" fill="white"/>
<path d="M33.0333 14.2414C33.0042 14.1697 32.9727 14.1687 32.9387 14.2386C32.8929 14.3326 32.8354 14.4121 32.7661 14.477C32.7031 14.5351 32.6137 14.5642 32.4981 14.5642C32.2489 14.5642 32.0278 14.5054 31.8349 14.3879C31.757 14.3406 31.6679 14.2247 31.5937 14.1533C31.5684 14.1279 31.5461 14.1304 31.5269 14.1607C31.3136 14.503 31.0122 14.5846 30.643 14.5966C30.4439 14.6034 30.2933 14.5098 30.1913 14.3156C30.1505 14.2383 30.119 14.242 30.0967 14.3267C30.0169 14.6272 29.7507 14.6718 29.4567 14.7302C29.45 14.7315 29.4437 14.7342 29.4382 14.738C29.4326 14.7418 29.4278 14.7466 29.4242 14.7523C29.4205 14.7579 29.4181 14.7642 29.417 14.7708C29.4159 14.7773 29.4161 14.784 29.4177 14.7905C29.5791 15.462 29.2721 16.0881 28.7026 16.4499C28.0969 16.8348 27.4708 16.742 27.1193 16.0547C26.8435 15.5161 26.7201 14.9479 26.7492 14.3499C26.7504 14.3295 26.7613 14.3218 26.7817 14.3267L27.1703 14.4204C27.1839 14.4235 27.1913 14.4318 27.1926 14.4454C27.2427 15.1473 27.3886 15.5906 27.6304 15.7755C27.8493 15.9425 28.0403 15.9054 28.3047 15.8275C28.6213 15.7347 28.8464 15.5331 28.9799 15.2227C28.9897 15.1999 28.994 15.1751 28.9924 15.1503C28.9909 15.1255 28.9835 15.1015 28.9709 15.0802C28.9584 15.0588 28.9409 15.0408 28.9201 15.0275C28.8993 15.0143 28.8756 15.0061 28.851 15.0038L28.0988 14.9305C28.0598 14.9268 28.0388 14.9055 28.0357 14.8665L27.9912 14.2933C27.9905 14.2807 27.9943 14.2683 28.0019 14.2582C28.0096 14.2482 28.0206 14.2412 28.0329 14.2386L29.4706 13.939C29.5251 13.9276 29.5739 13.8975 29.6086 13.854C29.6433 13.8105 29.6617 13.7563 29.6607 13.7006C29.6539 13.3673 29.6212 13.056 29.5624 12.7666C29.5501 12.706 29.5748 12.6732 29.6366 12.6683L29.9798 12.6423C30.0355 12.638 30.063 12.6636 30.0624 12.7193C30.0596 13.0569 30.1208 13.6255 30.4241 13.7906C30.4649 13.8122 30.5298 13.8169 30.6189 13.8045C30.8452 13.7724 31.018 13.7353 31.1374 13.6932C31.1439 13.691 31.1498 13.6872 31.1544 13.6821C31.159 13.677 31.1622 13.6707 31.1637 13.664C31.1652 13.6573 31.1649 13.6503 31.1629 13.6437C31.1609 13.6371 31.1572 13.6312 31.1522 13.6264C30.937 13.4205 30.5438 12.8946 30.8452 12.6052C31.2802 12.1887 32.0696 12.1544 32.077 12.9512C32.0788 13.1157 32.0164 13.3049 31.8896 13.5188C31.829 13.6221 31.8587 13.6846 31.9787 13.7062L32.2959 13.7628C32.4239 13.7857 32.5126 13.7418 32.5621 13.6311C32.606 13.5315 32.6282 13.4168 32.6289 13.287C32.6295 12.979 32.6292 12.7515 32.6279 12.6043C32.6279 12.5598 32.6499 12.5375 32.6938 12.5375H33.0425C33.1013 12.5375 33.1282 12.5669 33.1232 12.6256C33.1103 12.7994 33.1096 13.0109 33.1214 13.2601C33.1344 13.5151 33.2262 13.7906 33.5258 13.7915C33.6464 13.7922 33.7552 13.7804 33.8523 13.7563C33.8813 13.749 33.9078 13.7329 33.9283 13.7099C33.9698 13.6635 34.0078 13.546 34.0424 13.3574C34.0839 13.1311 34.1182 12.9283 34.1454 12.749C34.1503 12.7162 34.1695 12.7014 34.2029 12.7045L34.5656 12.7397C34.6249 12.7453 34.6478 12.7768 34.6342 12.8343C34.5498 13.1979 34.4774 13.4623 34.5795 13.7516C34.583 13.7614 34.5892 13.77 34.5973 13.7765C34.6055 13.7829 34.6153 13.7869 34.6256 13.7881C34.636 13.7893 34.6464 13.7875 34.6558 13.783C34.6652 13.7786 34.6731 13.7715 34.6787 13.7628C34.9452 13.3343 35.2476 12.9874 35.5858 12.7221C35.8483 12.5162 36.2249 12.4123 36.4475 12.7332C36.7926 13.2294 36.6711 13.9585 36.3845 14.4668C36.2478 14.7092 36.0679 14.8582 35.8446 14.9138C35.7513 14.9373 35.579 14.9259 35.328 14.8795C34.9505 14.809 34.3903 14.7933 34.3021 14.3852C34.2718 14.246 34.227 14.2374 34.1676 14.3592C34.0461 14.6087 33.8041 14.5697 33.5045 14.5762C33.382 14.5787 33.2942 14.5567 33.241 14.5104C33.1402 14.4226 33.071 14.3329 33.0333 14.2414ZM35.481 14.1032C35.5911 14.131 35.6907 14.1437 35.7797 14.1412C35.8929 14.1381 35.9788 14.1013 36.0376 14.0308C36.1915 13.8472 36.2852 13.3426 35.9596 13.2591C35.8675 13.2362 35.7707 13.2653 35.6693 13.3463C35.4696 13.5052 35.2754 13.7149 35.0868 13.9752C35.0664 14.003 35.0732 14.0203 35.1072 14.0271C35.3237 14.0698 35.4483 14.0951 35.481 14.1032Z" fill="white"/>
<path d="M24.4344 12.3454L24.0589 12.4903C24.0407 12.4973 24.0317 12.5177 24.0387 12.5358L25.3176 15.8501C25.3246 15.8683 25.345 15.8773 25.3631 15.8703L25.7387 15.7254C25.7569 15.7184 25.7659 15.698 25.7589 15.6798L24.48 12.3655C24.473 12.3474 24.4526 12.3383 24.4344 12.3454Z" fill="white"/>
<path d="M41.2485 16.653C41.0017 16.8199 40.8181 16.8747 40.5296 16.7281C40.0863 16.5018 39.8324 16.3614 39.7681 16.307C39.4852 16.0677 39.6262 15.475 39.7579 15.155C39.8191 15.0066 40.1617 14.2364 40.7856 12.8445C40.7879 12.8393 40.7912 12.8346 40.7954 12.8306C40.7996 12.8267 40.8045 12.8237 40.8098 12.8217C40.8152 12.8197 40.8209 12.8188 40.8266 12.819C40.8324 12.8193 40.838 12.8207 40.8431 12.8232L41.1956 13.0003C41.2041 13.0047 41.2106 13.0122 41.2137 13.0213C41.2168 13.0305 41.2163 13.0406 41.2123 13.0495C40.6978 14.1885 40.3954 14.8712 40.3052 15.0975C40.2319 15.2821 40.1215 15.5084 40.2847 15.6512C40.4387 15.7848 40.6579 15.9165 40.9424 16.0464C40.9743 16.0608 41.0101 16.0643 41.0443 16.0564C41.0785 16.0486 41.1091 16.0297 41.1316 16.0028C41.1953 15.9267 41.2364 15.833 41.2549 15.7217C41.365 15.0774 41.4491 14.6458 41.5072 14.4269C41.5468 14.2797 41.6309 14.1567 41.7595 14.0577C41.8535 13.986 41.9849 13.9634 42.1537 13.99C42.1828 13.995 42.5597 14.0336 43.2844 14.106C43.2895 14.1064 43.2945 14.1079 43.2991 14.1103C43.3036 14.1127 43.3076 14.116 43.3109 14.12C43.3142 14.1239 43.3166 14.1285 43.3181 14.1334C43.3196 14.1383 43.3202 14.1435 43.3196 14.1486L43.2751 14.6078C43.2714 14.6424 43.2522 14.6579 43.2176 14.6541L42.1046 14.5466C42.0689 14.543 42.0332 14.553 42.0045 14.5746C41.9758 14.5963 41.9563 14.628 41.9497 14.6634C41.8767 15.0561 41.8105 15.4497 41.7512 15.8442C41.6761 16.345 41.9014 16.6196 42.3726 16.8858C42.398 16.9006 42.4236 16.9006 42.4496 16.8858C42.5714 16.8147 42.6667 16.7281 42.7353 16.6261C42.7396 16.6193 42.8862 16.4319 43.1749 16.064C43.1966 16.0368 43.2219 16.0331 43.251 16.0529L43.5515 16.2606C43.5855 16.2841 43.5889 16.3113 43.5617 16.3423C43.3475 16.5871 43.0822 16.9748 43.0284 17.3004C43.0242 17.3258 43.026 17.3518 43.0336 17.3764C43.0411 17.401 43.0543 17.4235 43.0719 17.4422C43.0896 17.4608 43.1114 17.4752 43.1355 17.484C43.1597 17.4929 43.1855 17.4961 43.2111 17.4933C43.2866 17.4853 43.362 17.4374 43.4374 17.3496C43.6483 17.1041 43.8193 16.8883 43.9504 16.7021C43.9807 16.6589 44.0178 16.6524 44.0617 16.6827L44.339 16.8747C44.3866 16.9074 44.3919 16.9458 44.3548 16.9897C44.1572 17.2216 43.84 17.6176 43.801 17.9497C43.7977 17.9775 43.802 18.0057 43.8136 18.0312C43.8252 18.0568 43.8436 18.0786 43.8668 18.0944C43.8899 18.1102 43.917 18.1193 43.945 18.1208C43.973 18.1223 44.0008 18.116 44.0255 18.1027C44.1176 18.0539 44.1999 17.9806 44.2722 17.8829C44.2809 17.8712 44.4398 17.6686 44.749 17.2754C44.7657 17.2543 44.7852 17.2516 44.8074 17.267L45.1237 17.4859C45.154 17.5063 45.1571 17.5301 45.133 17.5573C44.9753 17.7348 44.8142 17.9704 44.6497 18.2641C44.5663 18.4131 44.5749 18.5563 44.6757 18.6936L44.9196 19.0266C45.0291 19.1768 45.1321 19.1725 45.2285 19.0136C45.3664 18.7854 45.4653 18.5897 45.5253 18.4264C45.5337 18.4034 45.5489 18.3834 45.569 18.3693C45.5891 18.3552 45.613 18.3476 45.6376 18.3476H46.093C46.1517 18.3476 46.1687 18.3742 46.144 18.4274C45.901 18.9384 45.6941 19.3456 45.2805 19.6369C45.0606 19.7918 44.8083 19.9439 44.5913 19.8066C44.5295 19.7677 44.4537 19.6897 44.364 19.5729C44.1674 19.3178 43.9615 19.1518 44.0478 18.7798C44.0626 18.7168 44.0419 18.7013 43.9856 18.7335C43.7494 18.8683 43.5571 18.867 43.4087 18.7297C43.264 18.5968 43.2102 18.415 43.2473 18.1843C43.2541 18.1417 43.2374 18.1284 43.1972 18.1445C43.0098 18.2187 42.8738 18.2381 42.7891 18.2029C42.4824 18.0761 42.3723 17.8674 42.4589 17.5768C42.4892 17.4754 42.4598 17.4528 42.3708 17.5091C42.0053 17.7419 41.7048 17.4201 41.4442 17.1603C41.3551 17.0725 41.3066 16.9118 41.2985 16.678C41.2973 16.6397 41.2806 16.6313 41.2485 16.653Z" fill="white"/>
<path d="M38.8267 13.4112C38.9615 13.431 39.0731 13.508 39.1615 13.6422C39.3983 14.0021 39.4954 14.4009 39.4527 14.8387C39.4008 15.3776 39.0669 15.8321 38.4844 15.7468C37.901 15.6614 37.7118 15.13 37.8166 14.5994C37.9013 14.1678 38.1087 13.8135 38.439 13.5365C38.562 13.4332 38.6912 13.3914 38.8267 13.4112ZM38.9556 14.7033C38.9658 14.6594 38.9622 14.6134 38.9454 14.5716L38.8332 14.2943C38.8162 14.2522 38.7866 14.2164 38.7486 14.1918C38.7105 14.1672 38.6657 14.155 38.6204 14.1569C38.5751 14.1587 38.5315 14.1745 38.4955 14.2021C38.4596 14.2296 38.433 14.2677 38.4195 14.3109L38.3212 14.6226C38.3075 14.6657 38.3074 14.712 38.321 14.7552C38.3346 14.7984 38.3612 14.8363 38.3972 14.8638L38.5707 14.9955C38.5999 15.0178 38.6344 15.0325 38.6708 15.0381C38.7072 15.0436 38.7444 15.04 38.779 15.0274C38.8137 15.0149 38.8446 14.9938 38.8689 14.9662C38.8933 14.9386 38.9103 14.9052 38.9185 14.8693L38.9556 14.7033Z" fill="white"/>
<path d="M42.112 13.4316L43.4013 13.5606C43.4105 13.5615 43.4195 13.5644 43.4275 13.5691C43.4356 13.5737 43.4426 13.58 43.4481 13.5875C43.4536 13.595 43.4575 13.6036 43.4595 13.6127C43.4615 13.6218 43.4616 13.6312 43.4597 13.6403L43.4068 13.8973C43.4037 13.9136 43.3945 13.9283 43.3811 13.9382C43.3677 13.9482 43.3511 13.9528 43.3345 13.9511L42.0489 13.8221C42.0396 13.8213 42.0305 13.8185 42.0223 13.8139C42.0142 13.8093 42.007 13.803 42.0014 13.7955C41.9958 13.788 41.9919 13.7793 41.9898 13.7702C41.9878 13.761 41.9877 13.7516 41.9896 13.7424L42.0396 13.4845C42.043 13.4683 42.0523 13.4539 42.0656 13.4441C42.079 13.4344 42.0955 13.4299 42.112 13.4316Z" fill="white"/>
<path d="M20.9827 17.4841C20.6006 17.288 20.3573 17.0017 20.2528 16.6252C20.1906 16.4016 20.2342 16.167 20.4151 16.0148C20.7162 15.7619 21.0204 15.7972 21.3278 16.1206C21.559 16.3636 21.6904 16.6403 21.722 16.9507C21.7251 16.9866 21.7421 16.9949 21.773 16.9758C21.9146 16.888 22.0349 16.7924 22.1338 16.6892C22.2556 16.5618 22.2828 16.4307 22.2154 16.2959C22.1066 16.0801 21.977 15.8482 21.8268 15.6002C21.8215 15.5915 21.8181 15.5817 21.8167 15.5716C21.8153 15.5614 21.816 15.5511 21.8187 15.5412C21.8214 15.5314 21.826 15.5221 21.8323 15.5141C21.8387 15.5061 21.8466 15.4994 21.8555 15.4945L22.1542 15.3303C22.2031 15.3031 22.2395 15.3149 22.2637 15.3656C22.4065 15.6679 22.5373 15.9462 22.7951 16.0983C22.8037 16.1033 22.8135 16.1059 22.8234 16.1057C22.8334 16.1055 22.8431 16.1025 22.8514 16.0971C22.8598 16.0917 22.8665 16.0842 22.8708 16.0752C22.8751 16.0662 22.8768 16.0563 22.8758 16.0464C22.822 15.5223 22.7831 14.6903 23.0947 14.298C23.3656 13.9594 23.7718 14.1394 24.0445 14.3879C24.3556 14.6724 24.5559 15.0425 24.6456 15.4982C24.7365 15.9564 24.5825 16.2514 24.1623 16.461C24.1549 16.4647 23.9722 16.5711 23.6141 16.7801C23.373 16.9204 23.1479 16.9043 22.9389 16.7318C22.8653 16.6718 22.8378 16.6885 22.8563 16.7819C22.9278 17.1446 22.707 17.229 22.4844 17.421C22.3453 17.5406 22.2432 17.6408 22.0679 17.6547C21.9356 17.6659 21.8079 17.6615 21.6849 17.6417C21.6601 17.638 21.6441 17.6479 21.6366 17.6714C21.543 17.9757 21.5077 18.1055 21.2888 18.2882C21.206 18.3581 21.1219 18.4391 21.0365 18.5312C20.8928 18.688 20.8139 18.97 21.0402 19.085C21.2072 19.1685 21.3649 19.1304 21.5309 19.0887C21.5835 19.0751 21.6221 19.0924 21.6468 19.1406L21.9186 19.6601C21.9427 19.7071 21.9291 19.7364 21.8778 19.7482C21.2471 19.8957 20.6117 19.6239 20.1424 19.2148C20.1164 19.192 20.096 19.1966 20.0812 19.2288C20.0218 19.3598 19.8783 19.5259 19.6508 19.7268C19.5024 19.8573 19.3271 19.8808 19.1249 19.7973C18.9016 19.7052 18.7056 19.5849 18.5368 19.4365C18.423 19.337 17.8016 18.7412 16.6725 17.6492C16.669 17.6457 16.6662 17.6417 16.6643 17.6372C16.6623 17.6327 16.6613 17.6279 16.6612 17.6231C16.6611 17.6183 16.662 17.6135 16.6638 17.6091C16.6655 17.6046 16.6682 17.6006 16.6715 17.5972L16.9507 17.319C16.9693 17.2998 16.9881 17.2995 17.0073 17.318C17.8353 18.1169 18.3643 18.6289 18.5943 18.854C18.7056 18.9629 18.8299 19.0426 18.9672 19.0933C19.1722 19.1703 19.3957 18.8698 19.4857 18.7158C19.5005 18.6905 19.5049 18.6633 19.4987 18.6342C19.4795 18.5464 19.4322 18.4574 19.3568 18.3671C19.1156 18.0795 18.931 17.8643 18.803 17.7215C18.7758 17.6912 18.7786 17.664 18.8114 17.6399L19.1193 17.4136C19.1422 17.3975 19.1623 17.4003 19.1796 17.4219C19.5636 17.8894 19.9065 18.2947 20.2082 18.6379C20.2589 18.6954 20.3149 18.7384 20.3761 18.7668C20.4058 18.7804 20.4145 18.7724 20.4021 18.7427C20.2586 18.3952 20.3115 18.1049 20.5607 17.8718C20.6114 17.8248 20.7536 17.7159 20.9874 17.5453C21.0189 17.5224 21.0174 17.502 20.9827 17.4841ZM23.3943 15.9768C23.6367 15.8463 23.8136 15.7452 23.9249 15.6735C24.2699 15.4518 24.0455 14.9834 23.783 14.8452C23.7294 14.8172 23.6674 14.8099 23.6087 14.8248C23.55 14.8397 23.4988 14.8757 23.4648 14.9259C23.4098 15.0082 23.3752 15.1059 23.3609 15.219C23.3306 15.4639 23.318 15.7026 23.3229 15.9351C23.3235 15.9883 23.3473 16.0022 23.3943 15.9768ZM20.9456 16.4424L20.7425 16.5955C20.7263 16.6078 20.7156 16.626 20.7129 16.6462C20.7101 16.6664 20.7154 16.6868 20.7277 16.7031L20.7981 16.7968C20.8323 16.8422 20.8703 16.884 20.9098 16.92C20.9494 16.956 20.9897 16.9853 21.0286 17.0063C21.0675 17.0273 21.1041 17.0396 21.1363 17.0425C21.1685 17.0454 21.1958 17.0388 21.2165 17.0231L21.2267 17.0157C21.2475 17.0001 21.2615 16.9758 21.2676 16.944C21.2738 16.9123 21.2721 16.8737 21.2626 16.8305C21.2531 16.7873 21.2361 16.7404 21.2124 16.6924C21.1887 16.6445 21.1589 16.5964 21.1246 16.551L21.0532 16.4573C21.0409 16.4411 21.0226 16.4304 21.0025 16.4276C20.9823 16.4249 20.9619 16.4302 20.9456 16.4424Z" fill="white"/>
<path d="M20.041 15.0384L19.7264 15.262C19.7064 15.2762 19.7017 15.304 19.7159 15.324L20.0759 15.8306C20.0902 15.8506 20.118 15.8553 20.138 15.8411L20.4525 15.6176C20.4726 15.6033 20.4773 15.5755 20.463 15.5555L20.103 15.0489C20.0888 15.0289 20.061 15.0242 20.041 15.0384Z" fill="white"/>
<path d="M45.4175 15.5404L45.1482 15.3277C45.1285 15.3121 45.0999 15.3155 45.0843 15.3352L44.7463 15.7632C44.7308 15.7829 44.7341 15.8115 44.7538 15.827L45.0232 16.0397C45.0429 16.0553 45.0714 16.0519 45.087 16.0322L45.425 15.6042C45.4406 15.5845 45.4372 15.556 45.4175 15.5404Z" fill="white"/>
<path d="M44.7527 15.9591L44.5115 15.7707C44.4869 15.7514 44.4514 15.7558 44.4321 15.7804L44.1066 16.197C44.0874 16.2217 44.0917 16.2572 44.1164 16.2765L44.3576 16.4649C44.3822 16.4841 44.4178 16.4798 44.437 16.4552L44.7625 16.0385C44.7817 16.0139 44.7774 15.9784 44.7527 15.9591Z" fill="white"/>
<path d="M45.1606 16.2758L44.9181 16.083C44.8929 16.0629 44.8561 16.0671 44.836 16.0923L44.508 16.5046C44.4879 16.5299 44.4921 16.5667 44.5174 16.5867L44.7598 16.7796C44.7851 16.7997 44.8219 16.7955 44.8419 16.7702L45.1699 16.3579C45.19 16.3327 45.1858 16.2959 45.1606 16.2758Z" fill="white"/>
<path d="M46.4767 17.4765L46.044 17.8857C46.0213 17.9072 46.0203 17.943 46.0418 17.9657L46.2878 18.2258C46.3093 18.2485 46.3451 18.2495 46.3678 18.228L46.8004 17.8189C46.8232 17.7974 46.8242 17.7616 46.8027 17.7389L46.5567 17.4788C46.5352 17.4561 46.4994 17.4551 46.4767 17.4765Z" fill="white"/>
<path d="M32.1883 17.6121C35.2714 17.6121 37.052 17.6139 37.53 17.6176C37.5465 17.6179 37.5627 17.6223 37.5772 17.6302C37.5917 17.6382 37.604 17.6495 37.6131 17.6633C37.6222 17.6771 37.6279 17.6929 37.6296 17.7093C37.6312 17.7257 37.6289 17.7423 37.6227 17.7577C37.4533 18.1738 37.256 18.5773 37.031 18.9681C36.4049 20.0561 35.9485 20.774 35.6137 21.7952C35.4857 22.1848 35.3462 22.7874 35.1954 23.603C34.9165 25.1149 34.7718 26.7576 34.7613 28.531C34.7285 34.2694 34.7217 38.4402 34.7409 41.0435C34.7458 41.6878 34.748 42.0282 34.7474 42.0647C34.743 42.3739 34.5943 42.5353 34.3012 42.5489C34.0409 42.5612 33.6841 42.5575 33.2308 42.5377C33.1679 42.5351 33.1085 42.5082 33.0649 42.4628C33.0213 42.4173 32.997 42.3568 32.9971 42.2938C32.9971 39.6874 32.9968 34.9963 32.9962 28.2203C32.9962 27.9785 33.0092 27.5302 33.0351 26.8754C33.066 26.0863 33.0589 25.3224 33.0138 24.5834C32.9946 24.2798 32.9455 23.9981 32.8663 23.7384C32.8531 23.6952 32.8265 23.6573 32.7904 23.63C32.7543 23.6027 32.7104 23.5874 32.665 23.5863C32.6199 23.5851 32.4613 23.5845 32.1892 23.5845C31.9165 23.5845 31.7576 23.5851 31.7125 23.5863C31.6671 23.5874 31.6232 23.6027 31.5871 23.63C31.551 23.6573 31.5244 23.6952 31.5112 23.7384C31.432 23.9981 31.3829 24.2798 31.3637 24.5834C31.3186 25.3224 31.3118 26.0863 31.3433 26.8754C31.3693 27.5302 31.3823 27.9785 31.3823 28.2203C31.3823 34.9963 31.3826 39.6874 31.3832 42.2938C31.3832 42.3568 31.3589 42.4173 31.3154 42.4628C31.2718 42.5082 31.2124 42.5351 31.1494 42.5377C30.6962 42.5575 30.3394 42.5612 30.0791 42.5489C29.786 42.5353 29.6373 42.3739 29.6329 42.0647C29.6323 42.0282 29.6342 41.6878 29.6385 41.0435C29.6577 38.4402 29.6505 34.2694 29.6172 28.531C29.606 26.7576 29.461 25.1149 29.1821 23.603C29.0313 22.7874 28.8918 22.1848 28.7638 21.7952C28.429 20.775 27.9726 20.057 27.3456 18.969C27.1205 18.5782 26.9233 18.1748 26.7539 17.7586C26.7477 17.7433 26.7453 17.7267 26.747 17.7102C26.7487 17.6938 26.7543 17.678 26.7635 17.6642C26.7726 17.6505 26.7849 17.6391 26.7994 17.6311C26.8139 17.6232 26.8301 17.6189 26.8466 17.6186C27.3246 17.6148 29.1052 17.6127 32.1883 17.6121Z" fill="white"/>
<path d="M47.7423 17.9504L45.0417 20.2897C45.0301 20.2997 45.0288 20.3173 45.0389 20.3289L45.3097 20.6416C45.3198 20.6532 45.3374 20.6545 45.349 20.6444L48.0496 18.3051C48.0612 18.2951 48.0624 18.2775 48.0524 18.2659L47.7815 17.9532C47.7714 17.9416 47.7539 17.9403 47.7423 17.9504Z" fill="white"/>
<path d="M17.3013 19.2232C17.9308 19.4415 18.4611 19.8023 18.8921 20.3056C19.1935 20.6581 19.4718 21.2146 19.341 21.6765C19.1731 22.2702 18.6398 22.4909 18.0563 22.3406C17.4868 22.1941 17.0184 21.8175 16.6446 21.3537C16.6335 21.3401 16.6354 21.3287 16.6502 21.3194L16.9758 21.1237C16.9831 21.1193 16.9917 21.1174 17.0001 21.1184C17.0085 21.1195 17.0163 21.1233 17.0221 21.1293C17.4024 21.5151 17.8272 21.8453 18.2595 21.7201C18.6546 21.6051 18.7798 21.1655 18.6175 20.813C18.3866 20.3131 17.8922 20.0014 17.3663 19.8224C17.3437 19.8146 17.324 19.8005 17.3094 19.7817C17.2949 19.7629 17.2863 19.7403 17.2846 19.7166L17.2494 19.2631C17.2463 19.2235 17.2636 19.2102 17.3013 19.2232Z" fill="white"/>
<path d="M17.1405 20.2029L16.6622 19.8238C16.6409 19.807 16.61 19.8106 16.5932 19.8318L16.3615 20.124C16.3447 20.1453 16.3483 20.1762 16.3695 20.1931L16.8478 20.5722C16.8691 20.5891 16.9 20.5855 16.9169 20.5642L17.1485 20.272C17.1654 20.2507 17.1618 20.2198 17.1405 20.2029Z" fill="white"/>
<path d="M46.617 20.9901C46.7314 21.1503 46.8566 21.3207 46.9927 21.5012C47.0139 21.5296 47.0429 21.5512 47.0762 21.5632C47.1095 21.5752 47.1456 21.5772 47.18 21.5689C47.2598 21.5498 47.3247 21.4953 47.3748 21.4057C47.4002 21.3599 47.6222 20.8912 48.0408 19.9995C48.0441 19.9923 48.0494 19.9861 48.0561 19.9817C48.0628 19.9772 48.0707 19.9748 48.0788 19.9745C48.4455 19.9683 48.6406 19.9649 48.6641 19.9643C48.6664 19.9644 48.6685 19.9651 48.6705 19.9662C48.6724 19.9674 48.6741 19.969 48.6752 19.9709C48.6764 19.9728 48.6771 19.975 48.6773 19.9772C48.6775 19.9795 48.6771 19.9817 48.6762 19.9838C48.2495 20.8847 48.0235 21.3593 47.9981 21.4075C47.8126 21.76 47.5384 22.0067 47.1754 22.1477C46.7784 22.3026 46.5456 22.2108 46.2776 21.8722C46.1792 21.747 45.9177 21.4511 45.9121 21.2239C45.9065 21.0081 45.9653 20.7901 46.0883 20.57C46.097 20.5551 46.11 20.5468 46.1273 20.5449C46.3184 20.5214 46.4995 20.5078 46.6708 20.5041C46.6733 20.5041 46.6757 20.5047 46.6779 20.5058C46.68 20.5069 46.6819 20.5086 46.6832 20.5106C46.6846 20.5126 46.6855 20.5149 46.6857 20.5174C46.686 20.5198 46.6857 20.5223 46.6847 20.5245C46.5883 20.7626 46.5657 20.9178 46.617 20.9901Z" fill="white"/>
<path d="M22.0095 22.9027C21.832 22.8842 21.7006 22.8236 21.6153 22.7209C21.415 22.4779 21.492 22.1282 21.7656 21.9743C21.9251 21.8852 22.089 21.8187 22.2572 21.7748C22.3901 21.7408 22.5654 21.7244 22.7831 21.7257C23.2703 21.7294 23.6151 21.7337 23.8173 21.7387C24.0665 21.7449 24.3908 21.845 24.7903 22.0392C25.5781 22.4213 26.2369 22.8672 26.7668 23.3767C27.2096 23.8015 27.5651 24.3639 27.8335 25.0639C28.0648 25.6674 28.1823 26.3507 28.186 27.1137C28.1915 28.3313 28.1931 31.7749 28.1906 37.4446C28.1906 37.5671 28.1492 37.5832 28.0663 37.4929C27.5216 36.8943 27.0584 36.3607 26.6769 35.8919C26.4926 35.665 26.3952 35.3394 26.3847 34.9152C26.3634 34.0777 26.4302 33.3004 26.4274 32.4582C26.4255 31.7106 26.428 30.468 26.4348 28.7304C26.4354 28.5301 26.4076 28.3032 26.3513 28.0496C26.2406 27.5512 25.9302 27.3447 25.4201 27.43C25.318 27.4473 25.2176 27.5274 25.1186 27.6703C25.0215 27.81 24.9659 28.0094 24.9517 28.2685C24.9192 28.8371 24.9721 29.5606 24.9702 30.0596C24.964 31.9827 24.9721 33.2247 24.9943 33.7855C25.0005 33.9432 24.9829 34.073 24.9415 34.1751C24.9316 34.199 24.9161 34.2202 24.8963 34.2368C24.8765 34.2534 24.8529 34.265 24.8276 34.2705C24.8023 34.2759 24.7761 34.2752 24.7512 34.2683C24.7262 34.2613 24.7034 34.2485 24.6845 34.2307C24.3352 33.9018 24.0108 33.6643 23.7115 33.5184C23.1204 33.2308 22.6814 33.0129 22.3944 32.8645C22.3718 32.8527 22.3529 32.835 22.3396 32.8133C22.3264 32.7915 22.3193 32.7666 22.3193 32.7411C22.3193 28.5493 22.319 25.754 22.3184 24.3552C22.3184 23.8219 22.259 23.4175 22.0809 22.9584C22.0751 22.9433 22.0653 22.9301 22.0527 22.9202C22.0401 22.9104 22.0252 22.9044 22.0095 22.9027Z" fill="white"/>
<path d="M42.3634 22.9639C42.2044 23.3764 42.125 23.8071 42.125 24.256C42.1268 26.5934 42.1268 29.4233 42.125 32.7457C42.125 32.7767 42.1126 32.8011 42.0879 32.819C41.9147 32.9421 41.7768 33.0268 41.6742 33.0732C40.8951 33.4262 40.444 33.6538 40.3209 33.7558C40.1459 33.8993 39.9716 34.0421 39.7978 34.1843C39.7452 34.227 39.6998 34.2536 39.6614 34.2641C39.6425 34.2695 39.6227 34.2707 39.6032 34.2676C39.5838 34.2644 39.5653 34.2571 39.549 34.246C39.5328 34.235 39.5191 34.2205 39.509 34.2036C39.499 34.1867 39.4927 34.1678 39.4908 34.1482C39.4766 33.9985 39.4698 33.8708 39.4704 33.7651C39.4722 31.7641 39.4818 29.9313 39.4991 28.2667C39.4997 28.2395 39.4787 28.1257 39.4361 27.9253C39.3414 27.4727 38.9287 27.2965 38.5252 27.4625C38.3267 27.5435 38.1932 27.7049 38.1245 27.9467C38.0472 28.2187 38.0092 28.4877 38.0104 28.7536C38.0206 30.4696 37.9891 32.3126 38.067 34.1343C38.0837 34.5331 38.0726 34.8893 38.0336 35.2028C37.9956 35.5015 37.9279 35.6981 37.7238 35.9467C37.3213 36.4358 36.881 36.9428 36.403 37.4678C36.3059 37.5742 36.2574 37.5553 36.2574 37.4112C36.2531 32.6468 36.2537 29.1902 36.2592 27.0414C36.2617 25.9828 36.5276 25.0206 37.0569 24.1549C37.35 23.6751 37.7625 23.2428 38.2943 22.8582C38.8811 22.4334 39.4651 22.1032 40.0464 21.8676C40.2282 21.794 40.4291 21.7483 40.6493 21.7303C40.8107 21.718 41.2012 21.7195 41.8208 21.735C42.1547 21.7433 42.419 21.8194 42.6778 21.9733C43.1276 22.2395 42.969 22.873 42.4543 22.899C42.4344 22.8998 42.4153 22.9064 42.3991 22.9179C42.383 22.9295 42.3706 22.9455 42.3634 22.9639Z" fill="white"/>
<path d="M20.7787 32.5788C20.2524 32.5831 19.7414 32.5321 19.2455 32.4257C19.2008 32.4164 19.1608 32.392 19.132 32.3567C19.1033 32.3214 19.0877 32.2773 19.0878 32.2319V25.2522C19.0878 25.1896 19.1109 25.1291 19.1527 25.0824C19.1944 25.0357 19.2519 25.006 19.3141 24.999C19.8725 24.934 20.3001 25.4841 20.5765 25.9256C20.7168 26.15 20.8003 26.3767 20.8269 26.6055C20.9011 27.251 20.9274 27.9649 20.9057 28.7471C20.8594 30.3796 20.8346 31.6392 20.8315 32.5259C20.8309 32.5612 20.8133 32.5788 20.7787 32.5788Z" fill="white"/>
<path d="M43.4996 26.8281C43.5206 26.522 43.5908 26.2601 43.7102 26.0424C43.8511 25.7852 44.0283 25.5468 44.2416 25.3273C44.4574 25.1041 44.7032 24.9903 44.979 24.986C45.1562 24.9823 45.2619 25.127 45.2619 25.2985C45.2619 29.0056 45.2625 31.3322 45.2638 32.2783C45.2638 32.2979 45.2586 32.3172 45.2486 32.3342C45.2387 32.3511 45.2244 32.3651 45.2072 32.3747C45.1225 32.4205 45.0291 32.4523 44.9271 32.4703C44.5412 32.5383 44.0917 32.5745 43.5784 32.5788C43.5519 32.5788 43.5383 32.5655 43.5376 32.5389C43.4752 30.1088 43.444 28.8934 43.444 28.8928C43.4303 28.2651 43.4489 27.5769 43.4996 26.8281Z" fill="white"/>
<path d="M20.5542 36.8353C20.566 36.8952 20.6398 36.9766 20.7759 37.0792C21.0084 37.2554 21.2508 37.4196 21.5031 37.5717C21.8524 37.7832 22.0995 37.9486 22.2442 38.068C22.9398 38.6399 23.4722 39.1461 23.8414 39.5863C24.4196 40.277 24.9034 41.067 25.293 41.9562C25.3165 42.0094 25.336 42.074 25.3514 42.15C25.3632 42.2075 25.3715 42.2749 25.3765 42.3522C25.3776 42.3711 25.3749 42.39 25.3684 42.4077C25.362 42.4254 25.352 42.4417 25.3391 42.4554C25.3261 42.4691 25.3105 42.4801 25.2931 42.4875C25.2758 42.495 25.2571 42.4988 25.2383 42.4988C24.5358 42.4994 24.0164 42.4994 23.68 42.4988C23.56 42.4988 23.4682 42.4747 23.4045 42.4264C23.3111 42.3572 23.2419 42.278 23.1968 42.189C22.5295 40.8713 21.6308 39.8031 20.5004 38.9844C20.0669 38.6702 19.5552 38.3474 18.9653 38.016C17.9302 37.4344 16.8097 37.0254 15.6253 37.0152C15.155 37.0115 14.7256 37.1154 14.2646 37.1812C14.2286 37.1864 14.1929 37.1841 14.1604 37.1746C14.1279 37.1651 14.0994 37.1486 14.0772 37.1265C14.0488 37.0981 14.0559 37.0514 14.0985 36.9864C14.2587 36.7428 14.506 36.4411 14.8406 36.0812C15.7898 35.0603 16.9337 34.3736 18.2725 34.0211C18.9997 33.83 19.7945 33.8235 20.5449 33.8727C21.8286 33.9562 23.0752 34.5572 24.1169 35.3234C24.7538 35.7921 25.2967 36.3001 25.7456 36.8473C26.0468 37.2134 26.4017 37.704 26.8104 38.3193C27.341 39.1164 27.8363 40.0309 28.2963 41.063C28.4917 41.502 28.6201 41.9086 28.6813 42.2827C28.6856 42.3094 28.684 42.3367 28.6767 42.3627C28.6694 42.3887 28.6565 42.4129 28.639 42.4334C28.6214 42.454 28.5996 42.4705 28.575 42.4818C28.5505 42.4931 28.5237 42.4989 28.4967 42.4988H27.175C27.1392 42.4988 27.1041 42.4896 27.0729 42.4723C27.0417 42.4549 27.0156 42.4299 26.9969 42.3995C26.5387 41.6631 26.3031 40.7736 25.8931 40.0696C25.1616 38.8125 24.1994 37.7668 23.0066 36.9326C22.4343 36.532 21.4827 35.8771 20.8028 36.2203C20.5789 36.3335 20.4961 36.5384 20.5542 36.8353Z" fill="white"/>
<path d="M43.8224 36.6636C43.7806 36.0329 43.0525 36.0607 42.6008 36.2277C41.8328 36.5124 41.1066 37.0708 40.4786 37.6153C39.6741 38.3122 38.9992 39.1343 38.4538 40.0816C38.3103 40.3308 38.1425 40.6944 37.9501 41.1724C37.7956 41.557 37.6264 41.9209 37.4428 42.2641C37.4044 42.3358 37.3544 42.4051 37.2925 42.4719C37.2841 42.4808 37.2722 42.488 37.2576 42.4928C37.243 42.4976 37.2261 42.5 37.2081 42.4997C37.1908 42.4991 36.7453 42.4991 35.8715 42.4997C35.7089 42.4997 35.6461 42.4011 35.6833 42.2038C35.7401 41.8996 35.8252 41.6127 35.9383 41.3431C36.5425 39.8998 37.317 38.549 38.2618 37.2907C39.2821 35.9318 40.6122 34.8689 42.1621 34.252C42.8911 33.9614 43.717 33.8257 44.6395 33.8449C45.5182 33.8628 46.293 34.0183 46.9639 34.3114C47.8476 34.6966 48.5448 35.1323 49.0555 35.6183C49.28 35.8316 49.6238 36.2036 50.087 36.7341C50.168 36.8269 50.2323 36.9255 50.2799 37.03C50.2885 37.0493 50.2918 37.0705 50.2894 37.0914C50.2869 37.1124 50.2788 37.1323 50.266 37.149C50.2532 37.1657 50.236 37.1787 50.2164 37.1865C50.1968 37.1943 50.1755 37.1966 50.1547 37.1933C49.3792 37.0671 49.0388 36.9827 48.41 37.0245C47.4388 37.0885 46.4779 37.4289 45.5986 37.9C44.9716 38.2364 44.399 38.5914 43.8808 38.9649C42.7381 39.7873 41.8424 40.8403 41.1937 42.124C41.1319 42.2459 41.0589 42.3402 40.9748 42.4069C40.8976 42.4682 40.7893 42.4991 40.6502 42.4997C40.1803 42.5022 39.6627 42.5012 39.0975 42.4969C39.0674 42.4967 39.0386 42.4846 39.0174 42.4634C38.9962 42.4422 38.9844 42.4136 38.9844 42.3838C38.9844 42.2378 39.0165 42.0873 39.0808 41.932C39.4104 41.1381 39.8497 40.4025 40.3988 39.7254C40.6338 39.4348 40.9356 39.1176 41.3041 38.7738C41.8291 38.2834 42.1602 37.9965 42.2975 37.913C42.8114 37.6008 43.1997 37.3559 43.4625 37.1784C43.6359 37.0616 43.8372 36.9039 43.8224 36.6636Z" fill="white"/>
<path d="M49.933 39.9991C48.9968 40.0374 48.0674 40.3018 47.1448 40.7921C46.2365 41.2757 45.4453 41.8412 44.7713 42.4886C44.5796 42.6729 44.3733 42.9057 44.1526 43.187C43.7602 43.6879 43.597 43.9226 43.3336 44.1684C43.3223 44.1789 43.3079 44.1852 43.2925 44.1864C43.2772 44.1876 43.2619 44.1835 43.2492 44.1749L41.9321 43.264C41.864 43.217 41.8436 43.1543 41.8709 43.0757C41.9593 42.8179 42.078 42.5897 42.227 42.3912C43.2807 40.9888 44.6915 39.6809 46.2154 38.9269C46.8146 38.6307 47.6049 38.3966 48.5862 38.2247C48.854 38.1777 49.1325 38.1545 49.4219 38.1551C50.2029 38.1561 50.7743 38.0568 51.2529 38.6254C51.5837 39.0181 51.8261 39.4701 51.9801 39.9815C51.9864 40.0022 51.9874 40.0243 51.9831 40.0455C51.9789 40.0668 51.9694 40.0867 51.9556 40.1033C51.9418 40.12 51.9241 40.1329 51.9041 40.141C51.8841 40.149 51.8624 40.1519 51.8409 40.1493C51.6956 40.1333 51.3781 40.0974 50.8884 40.0418C50.539 40.0016 50.2205 39.9873 49.933 39.9991Z" fill="white"/>
<path d="M18.4097 41.6482C17.6918 41.1294 16.9464 40.7238 16.1734 40.4313C15.4475 40.1567 14.6943 40.0356 13.914 40.0677C13.5714 40.0813 13.0727 40.1308 12.4178 40.2161C12.4045 40.2179 12.391 40.217 12.378 40.2134C12.365 40.2098 12.3529 40.2036 12.3424 40.1952C12.3319 40.1868 12.3233 40.1763 12.3169 40.1645C12.3106 40.1526 12.3067 40.1395 12.3056 40.1261C12.2994 40.0513 12.3102 39.9709 12.3381 39.885C12.4995 39.3915 12.8872 38.6755 13.3732 38.3833C13.5204 38.2955 13.747 38.2405 14.0531 38.2182C14.7314 38.1681 15.4342 38.2194 16.1614 38.3722C17.0877 38.5657 17.9141 38.8768 18.6407 39.3053C19.4953 39.8092 20.3511 40.5275 21.2081 41.4599C21.7618 42.061 22.1347 42.483 22.3916 43.1035C22.425 43.1833 22.4068 43.2488 22.3369 43.3002L21.0495 44.2425C21.0325 44.255 21.0118 44.2611 20.9909 44.2597C20.97 44.2583 20.9503 44.2496 20.9354 44.2351C20.7382 44.0434 20.5904 43.8765 20.492 43.7343C19.9633 42.965 19.2692 42.2697 18.4097 41.6482Z" fill="white"/>
<path d="M32.2332 46.8714C33.1707 46.8419 33.9085 46.1116 33.8811 45.2401C33.8537 44.3687 33.0716 43.6861 32.1341 43.7156C31.1966 43.745 30.4588 44.4754 30.4862 45.3468C30.5136 46.2183 31.2957 46.9008 32.2332 46.8714Z" fill="white"/>
<path d="M23.4045 47.0456C23.4118 47.0603 23.4229 47.0727 23.4367 47.0814C23.4504 47.0901 23.4663 47.0947 23.4824 47.0947C25.1285 47.1127 26.747 47.0845 28.3381 47.0103C28.5069 47.0023 28.7422 47.0137 29.0439 47.0446C29.2795 47.0681 29.4703 47.1123 29.6162 47.1773C29.6501 47.1922 29.679 47.2167 29.6992 47.2479C29.7195 47.279 29.7303 47.3154 29.7303 47.3526V50.2854C29.7303 50.33 29.7126 50.3727 29.6811 50.4042C29.6496 50.4356 29.6069 50.4533 29.5624 50.4533H20.6887C20.6454 50.4534 20.6038 50.4367 20.5725 50.4068C20.5412 50.3769 20.5227 50.3361 20.5208 50.2929C20.48 49.434 20.4893 48.4675 20.7239 47.6512C21.1333 46.2296 22.0209 45.2134 23.3869 44.6024C24.2377 44.2221 25.1548 44.0128 26.138 43.9745C27.1286 43.9355 28.241 43.9293 29.4752 43.9559C29.5439 43.9574 29.6092 43.9857 29.6573 44.0348C29.7053 44.0838 29.7322 44.1498 29.7322 44.2184V45.4715C29.7322 45.6051 29.6666 45.6846 29.5355 45.7099C29.2882 45.7575 29.0334 45.7761 28.7712 45.7656C28.1176 45.7402 27.1542 45.7306 25.881 45.7368C25.16 45.7399 24.5073 45.9347 23.923 46.3212C23.7579 46.4306 23.3016 46.8294 23.4045 47.0456Z" fill="white"/>
<path d="M40.9665 46.9704C40.9062 46.6616 40.5528 46.3824 40.2885 46.2266C39.7653 45.918 39.206 45.7569 38.6106 45.7433C37.8506 45.7254 36.7549 45.7328 35.3234 45.7656C35.1768 45.7693 34.9984 45.7492 34.7882 45.7053C34.7448 45.6961 34.706 45.6724 34.6781 45.6381C34.6502 45.6038 34.6351 45.5611 34.6351 45.517V44.1962C34.6351 44.1312 34.6608 44.0688 34.7065 44.0227C34.7522 43.9766 34.8143 43.9506 34.8791 43.9504C36.0441 43.9442 36.881 43.9408 37.3899 43.9402C37.9662 43.9389 38.4928 43.9767 38.9695 44.0533C39.7054 44.1721 40.2195 44.2809 40.512 44.3798C41.7252 44.7886 42.6255 45.559 43.213 46.6913C43.4727 47.1927 43.6579 47.7533 43.7686 48.3729C43.8734 48.9619 43.8474 49.703 43.8363 50.33C43.8344 50.4128 43.7924 50.4543 43.7101 50.4543H34.8114C34.7882 50.4543 34.7653 50.4497 34.7439 50.4409C34.7225 50.432 34.7031 50.419 34.6867 50.4027C34.6704 50.3863 34.6574 50.3669 34.6485 50.3455C34.6397 50.3241 34.6351 50.3012 34.6351 50.278V47.284C34.6352 47.2644 34.6412 47.2454 34.6525 47.2294C34.6638 47.2135 34.6798 47.2014 34.6982 47.1949C34.8312 47.1479 34.9536 47.1185 35.0655 47.1068C35.6981 47.04 36.5239 47.0205 37.543 47.0484C38.8743 47.0848 39.9802 47.1022 40.8608 47.1003C40.8767 47.1004 40.8925 47.0969 40.9069 47.09C40.9214 47.0832 40.9341 47.0732 40.9442 47.0607C40.9544 47.0483 40.9616 47.0338 40.9655 47.0181C40.9693 47.0025 40.9697 46.9862 40.9665 46.9704Z" fill="white"/>
<path d="M34.4691 51.609C34.4858 51.6331 34.4951 51.6471 34.4969 51.6508C34.5075 51.6739 34.5099 51.6999 34.5036 51.724C34.4973 51.7481 34.4828 51.7688 34.4626 51.7825C33.7855 52.2413 33.0865 52.6166 32.3654 52.9085C32.2306 52.9629 32.0677 52.9453 31.8766 52.8556C31.3813 52.6225 30.7317 52.2914 29.9279 51.8623C29.8994 51.8474 29.8889 51.8242 29.8963 51.7927C29.9174 51.6981 29.9622 51.5939 30.0308 51.4801C30.3264 50.9922 30.7481 50.3937 31.296 49.6844C31.5872 49.3078 31.85 49.0017 32.0844 48.7661C32.0951 48.7556 32.1078 48.7473 32.1217 48.7418C32.1356 48.7363 32.1505 48.7337 32.1655 48.7341C32.1804 48.7346 32.195 48.7381 32.2085 48.7443C32.222 48.7506 32.2341 48.7596 32.2439 48.7708C32.9575 49.5604 33.6992 50.5065 34.4691 51.609Z" fill="white"/>
</g>
<defs>
<clipPath id="clip0_111_120">
<rect width="64" height="64" fill="white"/>
</clipPath>
</defs>
</svg>
