<svg width="252" height="34" viewBox="0 0 252 34" fill="none" xmlns="http://www.w3.org/2000/svg">
<path d="M20.6719 12.1562L19.8125 14.75C19.375 14.6042 18.8906 14.4896 18.3594 14.4062C17.8385 14.3125 17.3385 14.2656 16.8594 14.2656C15.8594 14.2656 14.9583 14.4583 14.1562 14.8438C13.3646 15.2188 12.7396 15.75 12.2812 16.4375C11.8229 17.1146 11.5938 17.9062 11.5938 18.8125C11.5938 19.6875 11.9115 20.2969 12.5469 20.6406C13.1823 20.974 14.3021 21.2083 15.9062 21.3438C16.7812 21.4062 17.5573 21.5104 18.2344 21.6562C18.9115 21.8021 19.4844 22.026 19.9531 22.3281C20.4323 22.6198 20.7917 23.0156 21.0312 23.5156C21.2812 24.0156 21.4062 24.6562 21.4062 25.4375C21.4062 26.6458 21.1302 27.6979 20.5781 28.5938C20.026 29.5 19.2552 30.25 18.2656 30.8438C17.276 31.4375 16.1198 31.8802 14.7969 32.1719C13.474 32.4635 12.0417 32.6094 10.5 32.6094C7.19792 32.6094 4.73958 31.8854 3.125 30.4375C1.52083 29 0.71875 26.7135 0.71875 23.5781C0.71875 22.6406 0.770833 21.6875 0.875 20.7188C0.989583 19.7396 1.15625 18.7135 1.375 17.6406L4.07812 18.1562C3.89062 19.1979 3.73958 20.1667 3.625 21.0625C3.52083 21.9479 3.46875 22.8281 3.46875 23.7031C3.46875 25.1927 3.71354 26.3802 4.20312 27.2656C4.69271 28.151 5.45312 28.7865 6.48438 29.1719C7.52604 29.5573 8.86979 29.75 10.5156 29.75C11.5677 29.75 12.5781 29.6667 13.5469 29.5C14.526 29.3333 15.3958 29.0885 16.1562 28.7656C16.9271 28.4427 17.5365 28.0469 17.9844 27.5781C18.4323 27.1198 18.6562 26.5938 18.6562 26C18.6562 25.3958 18.4219 24.9635 17.9531 24.7031C17.4948 24.4531 16.6198 24.2708 15.3281 24.1562C13.8177 24.0312 12.5781 23.8021 11.6094 23.4688C10.651 23.125 9.94271 22.6146 9.48438 21.9375C9.03646 21.25 8.8125 20.3385 8.8125 19.2031C8.8125 17.7344 9.14062 16.4115 9.79688 15.2344C10.4531 14.0573 11.3698 13.1302 12.5469 12.4531C13.7344 11.7656 15.1094 11.4219 16.6719 11.4219C17.3385 11.4219 18.0208 11.4896 18.7188 11.625C19.4167 11.75 20.0677 11.9271 20.6719 12.1562ZM33.3906 8.17188L37.6094 18.0312C38.1302 19.2188 38.724 20.0312 39.3906 20.4688C40.0573 20.9062 40.9375 21.125 42.0312 21.125H42.2812V24H42C40.6875 24 39.526 23.7552 38.5156 23.2656C37.5052 22.776 36.6927 21.9479 36.0781 20.7812C35.4323 21.9062 34.526 22.75 33.3594 23.3125C32.1927 23.875 30.9479 24.1562 29.625 24.1562C28.5729 24.1562 27.5156 23.974 26.4531 23.6094C25.3906 23.2344 24.4167 22.6667 23.5312 21.9062L24.8906 19.6094C25.6198 20.1823 26.3906 20.6042 27.2031 20.875C28.0156 21.1354 28.8125 21.2656 29.5938 21.2656C30.6354 21.2656 31.6042 21.0469 32.5 20.6094C33.4062 20.1719 34.151 19.5156 34.7344 18.6406L30.6875 9.46875L33.3906 8.17188ZM50.2969 16.4062C50.2969 17.4583 50.3958 18.3385 50.5938 19.0469C50.7917 19.7448 51.1771 20.2656 51.75 20.6094C52.3333 20.9531 53.1927 21.125 54.3281 21.125H55.4062V24H54.2812C52.9583 24 51.7969 23.7083 50.7969 23.125C49.7969 22.5417 49.1458 21.7135 48.8438 20.6406C48.6354 21.3594 48.2448 21.9688 47.6719 22.4688C47.099 22.9688 46.4115 23.349 45.6094 23.6094C44.8073 23.8698 43.9531 24 43.0469 24H42.2812C42.1042 24 41.9792 23.8958 41.9062 23.6875C41.8333 23.4792 41.7969 23.1042 41.7969 22.5625C41.7969 22.0104 41.8333 21.6354 41.9062 21.4375C41.9792 21.2292 42.1042 21.125 42.2812 21.125H43.0469C44.276 21.125 45.2031 20.9531 45.8281 20.6094C46.4531 20.2552 46.875 19.7292 47.0938 19.0312C47.3125 18.3333 47.4219 17.4583 47.4219 16.4062V14.0781H50.2969V16.4062ZM44.8906 8.32812L47.2344 5.98438L49.5625 8.32812L47.2344 10.6562L44.8906 8.32812ZM66.25 21.125C67.1354 21.1354 67.8125 20.8802 68.2812 20.3594C68.7604 19.8281 69.0521 18.974 69.1562 17.7969L69.4062 14.7188L71.9844 14.9219L71.7812 17.7031C71.6875 18.8802 71.8802 19.7448 72.3594 20.2969C72.8385 20.849 73.5573 21.125 74.5156 21.125C76.2344 21.125 77.0938 20.0885 77.0938 18.0156C77.0938 17.6719 77.0729 17.2448 77.0312 16.7344C76.9896 16.224 76.9323 15.6927 76.8594 15.1406C76.7865 14.5781 76.7031 14.0521 76.6094 13.5625L79.3906 12.8906C79.4948 13.3802 79.5885 13.9271 79.6719 14.5312C79.7552 15.1354 79.8177 15.7396 79.8594 16.3438C79.9115 16.9479 79.9375 17.4948 79.9375 17.9844C79.9375 19.9844 79.5208 21.4896 78.6875 22.5C77.8542 23.5 76.6042 24 74.9375 24C73.75 24 72.776 23.75 72.0156 23.25C71.2656 22.7396 70.7604 22.0156 70.5 21.0781C69.8854 23.026 68.4427 24 66.1719 24C64.9635 24 63.9948 23.724 63.2656 23.1719C62.5365 22.6094 62.0573 21.7969 61.8281 20.7344C61.474 21.7135 60.7812 22.5052 59.75 23.1094C58.7292 23.7031 57.5417 24 56.1875 24H55.4062C55.2396 24 55.1198 23.8854 55.0469 23.6562C54.9635 23.4167 54.9219 23.0417 54.9219 22.5312C54.9219 22.0312 54.9635 21.6719 55.0469 21.4531C55.1198 21.2344 55.2396 21.125 55.4062 21.125H56.1875C57.6458 21.125 58.7344 20.776 59.4531 20.0781C60.1719 19.3802 60.6094 18.2188 60.7656 16.5938L61.0156 13.9531L63.9062 14.1875L63.5938 17.4219C63.4792 18.6094 63.6458 19.5208 64.0938 20.1562C64.5417 20.7812 65.2604 21.1042 66.25 21.125ZM85.8594 14.5781L88.6094 13.6719C89.151 15.4948 89.5573 17.0885 89.8281 18.4531C90.099 19.8177 90.2344 21.0729 90.2344 22.2188C90.2344 23.9062 89.9062 25.4115 89.25 26.7344C88.6042 28.0573 87.5833 29.2396 86.1875 30.2812C84.7917 31.3229 82.9635 32.2656 80.7031 33.1094L79.4844 30.5C81.3906 29.7917 82.9167 29.0469 84.0625 28.2656C85.2188 27.4948 86.0573 26.6198 86.5781 25.6406C87.099 24.6719 87.3594 23.5417 87.3594 22.25C87.3594 21.2917 87.2344 20.1875 86.9844 18.9375C86.7448 17.6771 86.3698 16.224 85.8594 14.5781ZM103.062 21.0938C103.01 20.3229 102.917 19.5469 102.781 18.7656C102.646 17.9844 102.443 17.2656 102.172 16.6094C101.911 15.9531 101.568 15.4271 101.141 15.0312C100.724 14.625 100.203 14.4219 99.5781 14.4219C98.9115 14.4219 98.3594 14.6354 97.9219 15.0625C97.4844 15.4896 97.1615 16.0365 96.9531 16.7031C96.7448 17.3698 96.6406 18.0677 96.6406 18.7969C96.6406 19.6719 96.901 20.2812 97.4219 20.625C97.9531 20.9583 98.7135 21.125 99.7031 21.125C100.255 21.125 100.818 21.125 101.391 21.125C101.964 21.1146 102.521 21.1042 103.062 21.0938ZM102.75 24C102.177 24 101.609 24 101.047 24C100.495 24 99.9427 24 99.3906 24C97.7552 24 96.4583 23.599 95.5 22.7969C94.5417 21.9844 94.0625 20.724 94.0625 19.0156C94.0625 18.1406 94.1719 17.2656 94.3906 16.3906C94.6198 15.5156 94.9635 14.7188 95.4219 14C95.8802 13.2812 96.4583 12.7083 97.1562 12.2812C97.8542 11.8438 98.6771 11.625 99.625 11.625C100.729 11.625 101.656 11.901 102.406 12.4531C103.167 13.0052 103.776 13.7448 104.234 14.6719C104.693 15.599 105.036 16.625 105.266 17.75C105.495 18.8646 105.635 19.9896 105.688 21.125H107.281V24H105.594C105.323 26.1562 104.24 27.9688 102.344 29.4375C100.448 30.9167 97.875 32.1146 94.625 33.0312L93.4688 30.3906C96.1458 29.6719 98.2812 28.776 99.875 27.7031C101.479 26.6302 102.438 25.3958 102.75 24ZM114.625 10.625C115.354 10.625 116.115 10.776 116.906 11.0781C117.708 11.3802 118.573 11.7448 119.5 12.1719C120.458 12.599 121.495 13.0365 122.609 13.4844C123.724 13.9219 124.958 14.2708 126.312 14.5312V17.0469L119.859 21.3594C118.484 22.2656 117.057 22.9323 115.578 23.3594C114.109 23.7865 112.51 24 110.781 24H107.281C107.104 24 106.979 23.8958 106.906 23.6875C106.833 23.4688 106.797 23.0938 106.797 22.5625C106.797 22.0208 106.833 21.6458 106.906 21.4375C106.979 21.2292 107.104 21.125 107.281 21.125H111.234C112.172 21.125 113.052 21.0573 113.875 20.9219C114.698 20.776 115.49 20.5573 116.25 20.2656C117.021 19.9635 117.786 19.5729 118.547 19.0938L122.969 16.25C121.958 16.0521 121.047 15.7917 120.234 15.4688C119.432 15.1458 118.693 14.8333 118.016 14.5312C117.38 14.2396 116.797 13.9948 116.266 13.7969C115.745 13.5885 115.234 13.4844 114.734 13.4844C113.901 13.4844 113.255 13.7656 112.797 14.3281C112.349 14.8906 112.021 15.6458 111.812 16.5938L111.719 17.0938L109.375 16.6562L109.484 16.0625C109.797 14.4375 110.349 13.125 111.141 12.125C111.932 11.125 113.094 10.625 114.625 10.625ZM114.922 4L117.266 1.65625L119.594 4L117.266 6.32812L114.922 4ZM140.047 14.5781L142.797 13.6719L143.688 16.8125C144 17.9479 144.349 18.8281 144.734 19.4531C145.12 20.0781 145.62 20.5156 146.234 20.7656C146.849 21.0052 147.656 21.125 148.656 21.125H148.672V24H148.656C147.656 24 146.766 23.8385 145.984 23.5156C145.214 23.1927 144.62 22.7344 144.203 22.1406C144.234 23.9219 143.927 25.474 143.281 26.7969C142.646 28.1302 141.635 29.3073 140.25 30.3281C138.875 31.349 137.089 32.276 134.891 33.1094L133.672 30.5C135.568 29.7917 137.094 29.0469 138.25 28.2656C139.406 27.4948 140.245 26.6198 140.766 25.6406C141.286 24.6615 141.547 23.5156 141.547 22.2031C141.547 21.2552 141.422 20.1562 141.172 18.9062C140.922 17.6458 140.547 16.2031 140.047 14.5781ZM151.906 29.5781L154.25 27.2344L156.578 29.5781L154.25 31.9062L151.906 29.5781ZM146.453 29.5781L148.797 27.2344L151.125 29.5781L148.797 31.9062L146.453 29.5781ZM157.828 14.0781V16.4062C157.828 17.4792 157.943 18.3646 158.172 19.0625C158.401 19.7604 158.875 20.2812 159.594 20.625C160.323 20.9583 161.427 21.125 162.906 21.125H162.938V24H162.906C161.208 24 159.771 23.7083 158.594 23.125C157.417 22.5312 156.677 21.7031 156.375 20.6406C156.062 21.7135 155.328 22.5417 154.172 23.125C153.016 23.7083 151.562 24 149.812 24H148.688C148.51 24 148.385 23.8958 148.312 23.6875C148.24 23.4792 148.203 23.1042 148.203 22.5625C148.203 22.0104 148.24 21.6354 148.312 21.4375C148.385 21.2292 148.51 21.125 148.688 21.125H149.812C151.292 21.125 152.396 20.9531 153.125 20.6094C153.865 20.2656 154.354 19.7448 154.594 19.0469C154.833 18.349 154.953 17.4688 154.953 16.4062V14.0781H157.828ZM162.938 21.125C163.844 21.125 164.589 20.9062 165.172 20.4688C165.766 20.0312 166.271 19.4688 166.688 18.7812C167.104 18.0833 167.5 17.3542 167.875 16.5938C168.281 15.75 168.714 14.9583 169.172 14.2188C169.641 13.4688 170.208 12.8594 170.875 12.3906C171.542 11.9115 172.391 11.6719 173.422 11.6719C174.547 11.6719 175.531 12.0104 176.375 12.6875C177.219 13.3542 177.875 14.2135 178.344 15.2656C178.812 16.3073 179.047 17.3958 179.047 18.5312C179.047 20.2292 178.568 21.5938 177.609 22.625C176.661 23.6458 175.365 24.1562 173.719 24.1562C172.604 24.1562 171.552 23.901 170.562 23.3906C169.583 22.8698 168.729 22.1667 168 21.2812C167.438 22.0729 166.755 22.724 165.953 23.2344C165.161 23.7448 164.156 24 162.938 24C162.76 24 162.635 23.8958 162.562 23.6875C162.49 23.4792 162.453 23.1042 162.453 22.5625C162.453 22.0104 162.49 21.6354 162.562 21.4375C162.635 21.2292 162.76 21.125 162.938 21.125ZM169.453 19.0312C170.109 19.7708 170.792 20.3333 171.5 20.7188C172.208 21.1042 172.953 21.2969 173.734 21.2969C174.505 21.2969 175.151 21.0521 175.672 20.5625C176.193 20.0729 176.453 19.3958 176.453 18.5312C176.453 17.8646 176.312 17.2292 176.031 16.625C175.76 16.0104 175.391 15.5052 174.922 15.1094C174.464 14.7135 173.948 14.5156 173.375 14.5156C172.844 14.5156 172.375 14.6562 171.969 14.9375C171.573 15.2083 171.214 15.6042 170.891 16.125C170.568 16.6354 170.25 17.2552 169.938 17.9844L169.453 19.0312ZM186.594 24H183.719V2.5H186.594V24ZM201.453 14.5781L204.203 13.6719L205.094 16.8125C205.406 17.9479 205.755 18.8281 206.141 19.4531C206.526 20.0781 207.026 20.5156 207.641 20.7656C208.255 21.0052 209.062 21.125 210.062 21.125H210.078V24H210.062C209.062 24 208.172 23.8385 207.391 23.5156C206.62 23.1927 206.026 22.7344 205.609 22.1406C205.641 23.9219 205.333 25.474 204.688 26.7969C204.052 28.1302 203.042 29.3073 201.656 30.3281C200.281 31.349 198.495 32.276 196.297 33.1094L195.078 30.5C196.974 29.7917 198.5 29.0469 199.656 28.2656C200.812 27.4948 201.651 26.6198 202.172 25.6406C202.693 24.6615 202.953 23.5156 202.953 22.2031C202.953 21.2552 202.828 20.1562 202.578 18.9062C202.328 17.6458 201.953 16.2031 201.453 14.5781ZM218.109 16.4062C218.109 17.4583 218.208 18.3385 218.406 19.0469C218.604 19.7448 218.99 20.2656 219.562 20.6094C220.146 20.9531 221.005 21.125 222.141 21.125H223.219V24H222.094C220.771 24 219.609 23.7083 218.609 23.125C217.609 22.5417 216.958 21.7135 216.656 20.6406C216.448 21.3594 216.057 21.9688 215.484 22.4688C214.911 22.9688 214.224 23.349 213.422 23.6094C212.62 23.8698 211.766 24 210.859 24H210.094C209.917 24 209.792 23.8958 209.719 23.6875C209.646 23.4792 209.609 23.1042 209.609 22.5625C209.609 22.0104 209.646 21.6354 209.719 21.4375C209.792 21.2292 209.917 21.125 210.094 21.125H210.859C212.089 21.125 213.016 20.9531 213.641 20.6094C214.266 20.2552 214.688 19.7292 214.906 19.0312C215.125 18.3333 215.234 17.4583 215.234 16.4062V14.0781H218.109V16.4062ZM215.516 8.32812L217.859 5.98438L220.188 8.32812L217.859 10.6562L215.516 8.32812ZM210.062 8.32812L212.406 5.98438L214.734 8.32812L212.406 10.6562L210.062 8.32812ZM237.125 0.859375L237.766 3.65625C235.682 4.29167 233.771 4.95312 232.031 5.64062C230.302 6.31771 228.635 7.07292 227.031 7.90625V8.0625C229.521 9.9375 231.365 11.6823 232.562 13.2969C233.76 14.901 234.359 16.4948 234.359 18.0781C234.359 19.3281 234 20.3958 233.281 21.2812C232.573 22.1667 231.531 22.8438 230.156 23.3125C228.792 23.7708 227.13 24 225.172 24H223.219C223.052 24 222.932 23.8854 222.859 23.6562C222.776 23.4271 222.734 23.0573 222.734 22.5469C222.734 22.0365 222.776 21.6719 222.859 21.4531C222.932 21.2344 223.052 21.125 223.219 21.125H225.109C227.214 21.125 228.802 20.8542 229.875 20.3125C230.948 19.7708 231.484 18.9635 231.484 17.8906C231.484 16.7344 230.854 15.4427 229.594 14.0156C228.333 12.5885 226.417 10.974 223.844 9.17188V6.51562C228.094 4.03646 232.521 2.15104 237.125 0.859375ZM251.391 18.1094C251.391 19.224 251.151 20.1667 250.672 20.9375C250.203 21.7083 249.568 22.3281 248.766 22.7969C247.974 23.2656 247.089 23.6042 246.109 23.8125C245.141 24.0208 244.156 24.125 243.156 24.125C242.344 24.125 241.531 24.0729 240.719 23.9688C239.917 23.8542 239.146 23.6927 238.406 23.4844L239.062 20.75C239.646 20.9062 240.286 21.0312 240.984 21.125C241.682 21.2188 242.385 21.2656 243.094 21.2656C244.146 21.2656 245.083 21.151 245.906 20.9219C246.729 20.6927 247.375 20.3333 247.844 19.8438C248.323 19.3542 248.562 18.7188 248.562 17.9375C248.562 16.9375 248.12 15.7865 247.234 14.4844C246.349 13.1719 245.026 11.7344 243.266 10.1719L245.141 7.95312C246.411 9.07812 247.516 10.1979 248.453 11.3125C249.391 12.4271 250.115 13.5469 250.625 14.6719C251.135 15.7969 251.391 16.9427 251.391 18.1094Z" fill="white"/>
</svg>
