<svg width="26" height="26" viewBox="0 0 26 26" fill="none" xmlns="http://www.w3.org/2000/svg">
<rect width="26" height="26" fill="white"/>
<path d="M21.6663 10.8333C21.6663 16.2424 15.6658 21.8758 13.6508 23.6156C13.463 23.7567 13.2345 23.8331 12.9997 23.8331C12.7648 23.8331 12.5363 23.7567 12.3486 23.6156C10.3336 21.8758 4.33301 16.2424 4.33301 10.8333C4.33301 8.5348 5.2461 6.3304 6.87142 4.70508C8.49673 3.07976 10.7011 2.16667 12.9997 2.16667C15.2982 2.16667 17.5026 3.07976 19.1279 4.70508C20.7532 6.3304 21.6663 8.5348 21.6663 10.8333Z" stroke="black" stroke-width="2" stroke-linecap="round" stroke-linejoin="round"/>
<path d="M13 14.0833C14.7949 14.0833 16.25 12.6283 16.25 10.8333C16.25 9.0384 14.7949 7.58333 13 7.58333C11.2051 7.58333 9.75 9.0384 9.75 10.8333C9.75 12.6283 11.2051 14.0833 13 14.0833Z" stroke="black" stroke-width="2" stroke-linecap="round" stroke-linejoin="round"/>
</svg>
