<svg width="24" height="24" viewBox="0 0 24 24" fill="none" xmlns="http://www.w3.org/2000/svg">
<path d="M1.99958 16.92V19.92C1.99845 20.1985 2.0555 20.4742 2.16707 20.7293C2.27864 20.9845 2.44228 21.2136 2.6475 21.4019C2.85272 21.5901 3.095 21.7335 3.35883 21.8227C3.62265 21.9119 3.90221 21.9451 4.17958 21.92C7.25674 21.5856 10.2126 20.5341 12.8096 18.85C15.2258 17.3147 17.2742 15.2662 18.8096 12.85C20.4996 10.2412 21.5513 7.27099 21.8796 4.18C21.9046 3.90346 21.8717 3.62476 21.7831 3.36162C21.6945 3.09849 21.552 2.85669 21.3648 2.65162C21.1776 2.44655 20.9498 2.28271 20.6958 2.17052C20.4418 2.05833 20.1672 2.00026 19.8896 2H16.8896C16.4043 1.99522 15.9338 2.16708 15.5658 2.48353C15.1978 2.79998 14.9575 3.23944 14.8896 3.72C14.763 4.68006 14.5281 5.62272 14.1896 6.53C14.055 6.88792 14.0259 7.27691 14.1057 7.65088C14.1854 8.02484 14.3707 8.36811 14.6396 8.64L15.9096 9.91C14.486 12.4135 12.4131 14.4864 9.90958 15.91L8.63958 14.64C8.36769 14.3711 8.02442 14.1858 7.65046 14.1061C7.27649 14.0263 6.8875 14.0555 6.52958 14.19C5.62231 14.5285 4.67964 14.7634 3.71958 14.89C3.23381 14.9585 2.79018 15.2032 2.47305 15.5775C2.15591 15.9518 1.98741 16.4296 1.99958 16.92Z" stroke="black" stroke-width="2" stroke-linecap="round" stroke-linejoin="round"/>
</svg>
